<svg width="20" height="21" viewBox="0 0 20 21" fill="none" xmlns="http://www.w3.org/2000/svg">
<g clip-path="url(#clip0_2860_417)">
<path d="M17.5741 10.5873V18.4446C17.5741 19.6226 16.6156 20.5811 15.4376 20.5811H12.315C11.9698 20.5811 11.69 20.3012 11.69 19.956V14.9788C11.69 14.0462 10.9317 13.2874 9.99972 13.2874C9.06597 13.2874 8.30722 14.0462 8.30722 14.9788V19.956C8.30722 20.3013 8.02737 20.5811 7.68218 20.5811H4.56073C3.38327 20.5811 2.42534 19.6227 2.42534 18.4446V10.5873C2.42534 10.2421 2.70519 9.96222 3.05038 9.96222C3.39558 9.96222 3.67542 10.2421 3.67542 10.5873V18.4446C3.67542 18.9334 4.07257 19.3309 4.56069 19.3309H7.05706V14.9788C7.05706 13.3569 8.37659 12.0373 9.99854 12.0373C11.621 12.0373 12.94 13.3568 12.94 14.9788V19.331H15.4375C15.9263 19.331 16.3239 18.9334 16.3239 18.4446V10.5873C16.3239 10.2421 16.6037 9.96222 16.9489 9.96222C17.2941 9.96222 17.5741 10.2421 17.5741 10.5873ZM19.6278 9.95163L17.391 7.7137L10.4417 0.764404C10.1976 0.520264 9.80179 0.520264 9.55769 0.764404L0.370576 9.95151C0.126475 10.1956 0.126475 10.5914 0.370576 10.8355C0.614678 11.0796 1.01046 11.0796 1.25456 10.8355L9.99968 2.09034L16.5069 8.59753L18.7436 10.8353C18.8657 10.9575 19.0257 11.0185 19.1857 11.0185C19.3456 11.0185 19.5055 10.9575 19.6276 10.8355C19.8717 10.5916 19.8718 10.1958 19.6278 9.95163Z" fill="#A7A7A7"/>
</g>
<defs>
<clipPath id="clip0_2860_417">
<rect width="20" height="20" fill="white" transform="translate(0 0.581299)"/>
</clipPath>
</defs>
</svg>
