<svg
  width="20"
  height="21"
  viewBox="0 0 20 21"
  fill="none"
  xmlns="http://www.w3.org/2000/svg">
  <g clip-path="url(#clip0_2860_728)">
    <path
      d="M19.6273 10.8355C19.5053 10.9576 19.3453 11.0186 19.1854 11.0186C19.0254 11.0186 18.8654 10.9575 18.7434 10.8355L17.5725 9.66433V18.4446C17.5725 19.6227 16.6143 20.5809 15.4362 20.5809H12.3147C11.9694 20.5809 11.6897 20.3012 11.6897 19.9559V14.9789C11.6897 14.0461 10.9307 13.2875 9.99827 13.2875C9.06546 13.2875 8.30687 14.0461 8.30687 14.9789V19.9559C8.30687 20.3012 8.02718 20.5809 7.68187 20.5809H4.56038C3.38226 20.5809 2.42405 19.6227 2.42405 18.4446V9.66425L1.25312 10.8355C1.13104 10.9575 0.971084 11.0186 0.811084 11.0186C0.651123 11.0186 0.491201 10.9576 0.36917 10.8355C0.125029 10.5915 0.12499 10.1957 0.369053 9.9516L5.02409 5.29546C5.02757 5.29199 5.03136 5.28906 5.03491 5.2857L9.55608 0.764526C9.80022 0.520386 10.1959 0.520386 10.4401 0.764526L14.9479 5.27234L14.9491 5.27312L14.9625 5.28656C14.9657 5.28964 14.9692 5.29234 14.9724 5.2955L19.6274 9.95164C19.8715 10.1957 19.8714 10.5915 19.6273 10.8355Z"
      fill="#F97300"
    />
  </g>
  <defs>
    <clipPath id="clip0_2860_728">
      <rect
        width="20"
        height="20"
        fill="white"
        transform="translate(0 0.581421)"
      />
    </clipPath>
  </defs>
</svg>
