<svg
  width="24"
  height="25"
  viewBox="0 0 24 25"
  fill="none"
  xmlns="http://www.w3.org/2000/svg">
  <path
    d="M11.5 14.5814C15.64 14.5814 19 16.1514 19 18.0814V20.5814H4V18.0814C4 16.1514 7.36 14.5814 11.5 14.5814ZM18 18.0814C18 16.7014 15.09 15.5814 11.5 15.5814C7.91 15.5814 5 16.7014 5 18.0814V19.5814H18V18.0814ZM11.5 5.58142C12.4283 5.58142 13.3185 5.95017 13.9749 6.60655C14.6313 7.26292 15 8.15316 15 9.08142C15 10.0097 14.6313 10.8999 13.9749 11.5563C13.3185 12.2127 12.4283 12.5814 11.5 12.5814C10.5717 12.5814 9.6815 12.2127 9.02513 11.5563C8.36875 10.8999 8 10.0097 8 9.08142C8 8.15316 8.36875 7.26292 9.02513 6.60655C9.6815 5.95017 10.5717 5.58142 11.5 5.58142ZM11.5 6.58142C10.837 6.58142 10.2011 6.84481 9.73223 7.31365C9.26339 7.7825 9 8.41838 9 9.08142C9 9.74446 9.26339 10.3803 9.73223 10.8492C10.2011 11.318 10.837 11.5814 11.5 11.5814C12.163 11.5814 12.7989 11.318 13.2678 10.8492C13.7366 10.3803 14 9.74446 14 9.08142C14 8.41838 13.7366 7.7825 13.2678 7.31365C12.7989 6.84481 12.163 6.58142 11.5 6.58142Z"
    fill="#A7A7A7"
  />
</svg>
