<svg
  width="20"
  height="21"
  viewBox="0 0 20 21"
  fill="none"
  xmlns="http://www.w3.org/2000/svg">
  <path
    d="M16.8083 3.33959L12.7002 7.44772C12.4242 7.71247 12.0555 7.85854 11.6731 7.85458C11.2908 7.85063 10.9252 7.69697 10.6548 7.42657C10.3844 7.15617 10.2307 6.79056 10.2267 6.40818C10.2228 6.0258 10.3688 5.65709 10.6336 5.38116L13.5585 2.4563H5.00054C4.69955 2.45608 4.40146 2.5152 4.12334 2.63029C3.84522 2.74537 3.59251 2.91416 3.37968 3.12699C3.16684 3.33983 2.99806 3.59253 2.88297 3.87066C2.76789 4.14878 2.70877 4.44686 2.70898 4.74785V17.2472C2.70877 17.5482 2.76789 17.8463 2.88297 18.1244C2.99806 18.4026 3.16684 18.6553 3.37968 18.8681C3.59251 19.0809 3.84522 19.2497 4.12334 19.3648C4.40146 19.4799 4.69955 19.539 5.00054 19.5388H15.0001C15.301 19.539 15.5991 19.4799 15.8773 19.3648C16.1554 19.2497 16.4081 19.0809 16.6209 18.8681C16.8337 18.6553 17.0025 18.4026 17.1176 18.1244C17.2327 17.8463 17.2918 17.5482 17.2916 17.2472V4.74785C17.2923 4.23763 17.1222 3.74185 16.8083 3.33959ZM13.3335 15.3723H6.66713C6.50137 15.3723 6.34241 15.3065 6.22521 15.1893C6.108 15.0721 6.04216 14.9131 6.04216 14.7474C6.04216 14.5816 6.108 14.4227 6.22521 14.3054C6.34241 14.1882 6.50137 14.1224 6.66713 14.1224H13.3335C13.4992 14.1224 13.6582 14.1882 13.7754 14.3054C13.8926 14.4227 13.9584 14.5816 13.9584 14.7474C13.9584 14.9131 13.8926 15.0721 13.7754 15.1893C13.6582 15.3065 13.4992 15.3723 13.3335 15.3723ZM13.3335 11.2059H6.66713C6.50137 11.2059 6.34241 11.14 6.22521 11.0228C6.108 10.9056 6.04216 10.7467 6.04216 10.5809C6.04216 10.4152 6.108 10.2562 6.22521 10.139C6.34241 10.0218 6.50137 9.95593 6.66713 9.95593H13.3335C13.4992 9.95593 13.6582 10.0218 13.7754 10.139C13.8926 10.2562 13.9584 10.4152 13.9584 10.5809C13.9584 10.7467 13.8926 10.9056 13.7754 11.0228C13.6582 11.14 13.4992 11.2059 13.3335 11.2059Z"
    fill="#F97300"
  />
  <path
    d="M11.6669 7.03973C11.5434 7.03962 11.4226 7.00291 11.32 6.93423C11.2173 6.86555 11.1373 6.76798 11.09 6.65385C11.0428 6.53972 11.0304 6.41414 11.0545 6.29298C11.0785 6.17182 11.138 6.06051 11.2253 5.97311L15.3917 1.80665C15.5102 1.69626 15.6669 1.63616 15.8288 1.63901C15.9907 1.64187 16.1452 1.70746 16.2597 1.82197C16.3742 1.93647 16.4398 2.09095 16.4426 2.25286C16.4455 2.41477 16.3854 2.57147 16.275 2.68994L12.1085 6.8564C12.0507 6.91468 11.9819 6.96089 11.9061 6.99236C11.8303 7.02383 11.749 7.03993 11.6669 7.03973Z"
    fill="#F97300"
  />
</svg>
