<svg
  width="20"
  height="21"
  viewBox="0 0 20 21"
  fill="none"
  xmlns="http://www.w3.org/2000/svg">
  <path
    d="M14.9991 19.5392H4.99956C4.39194 19.5387 3.80933 19.2971 3.37968 18.8675C2.95002 18.4378 2.70845 17.8552 2.70801 17.2476V4.74822C2.70845 4.1406 2.95002 3.55799 3.37968 3.12833C3.80933 2.69868 4.39194 2.45711 4.99956 2.45667H10.8326C10.9984 2.45667 11.1573 2.52251 11.2745 2.63971C11.3917 2.75692 11.4576 2.91588 11.4576 3.08163C11.4576 3.24739 11.3917 3.40635 11.2745 3.52355C11.1573 3.64076 10.9984 3.7066 10.8326 3.7066H4.99956C4.72344 3.70704 4.45876 3.81693 4.26352 4.01217C4.06827 4.20742 3.95839 4.4721 3.95795 4.74822V17.2476C3.95839 17.5237 4.06827 17.7884 4.26352 17.9837C4.45876 18.1789 4.72344 18.2888 4.99956 18.2892H14.9991C15.2752 18.2888 15.5399 18.1789 15.7351 17.9837C15.9304 17.7884 16.0402 17.5237 16.0407 17.2476V6.4148C16.0407 6.24905 16.1065 6.09009 16.2237 5.97288C16.3409 5.85568 16.4999 5.78984 16.6657 5.78984C16.8314 5.78984 16.9904 5.85568 17.1076 5.97288C17.2248 6.09009 17.2906 6.24905 17.2906 6.4148V17.2476C17.2902 17.8552 17.0486 18.4378 16.619 18.8675C16.1893 19.2971 15.6067 19.5387 14.9991 19.5392Z"
    fill="#A7A7A7"
  />
  <path
    d="M13.3318 10.3729H6.6655C6.49974 10.3729 6.34078 10.307 6.22358 10.1898C6.10637 10.0726 6.04053 9.91365 6.04053 9.74789C6.04053 9.58214 6.10637 9.42318 6.22358 9.30597C6.34078 9.18877 6.49974 9.12292 6.6655 9.12292H13.3318C13.4976 9.12292 13.6566 9.18877 13.7738 9.30597C13.891 9.42318 13.9568 9.58214 13.9568 9.74789C13.9568 9.91365 13.891 10.0726 13.7738 10.1898C13.6566 10.307 13.4976 10.3729 13.3318 10.3729Z"
    fill="#A7A7A7"
  />
  <path
    d="M13.3318 14.5399H6.6655C6.49974 14.5399 6.34078 14.474 6.22358 14.3568C6.10637 14.2396 6.04053 14.0806 6.04053 13.9149C6.04053 13.7491 6.10637 13.5902 6.22358 13.473C6.34078 13.3558 6.49974 13.2899 6.6655 13.2899H13.3318C13.4976 13.2899 13.6566 13.3558 13.7738 13.473C13.891 13.5902 13.9568 13.7491 13.9568 13.9149C13.9568 14.0806 13.891 14.2396 13.7738 14.3568C13.6566 14.474 13.4976 14.5399 13.3318 14.5399Z"
    fill="#A7A7A7"
  />
  <path
    d="M11.6664 7.03985C11.5429 7.03974 11.4222 7.00303 11.3195 6.93435C11.2168 6.86567 11.1368 6.7681 11.0895 6.65397C11.0423 6.53984 11.0299 6.41427 11.054 6.29311C11.078 6.17195 11.1375 6.06064 11.2248 5.97324L15.3912 1.80677C15.5097 1.69638 15.6664 1.63628 15.8283 1.63914C15.9902 1.64199 16.1447 1.70758 16.2592 1.82209C16.3737 1.93659 16.4393 2.09107 16.4422 2.25298C16.445 2.41489 16.3849 2.57159 16.2745 2.69006L12.1081 6.85653C12.0502 6.9148 11.9814 6.96101 11.9056 6.99248C11.8298 7.02395 11.7485 7.04005 11.6664 7.03985Z"
    fill="#A7A7A7"
  />
</svg>
