<svg
  width="22"
  height="21"
  viewBox="0 0 22 21"
  fill="none"
  xmlns="http://www.w3.org/2000/svg">
  <path
    d="M18.6581 18.2386L14.9632 14.5436M14.9632 14.5436C15.5952 13.9116 16.0966 13.1612 16.4386 12.3354C16.7807 11.5096 16.9567 10.6245 16.9567 9.73069C16.9567 8.83684 16.7807 7.95176 16.4386 7.12595C16.0966 6.30015 15.5952 5.54981 14.9632 4.91777C14.3311 4.28573 13.5808 3.78437 12.755 3.44231C11.9292 3.10025 11.0441 2.92419 10.1502 2.92419C9.2564 2.92419 8.37131 3.10025 7.54551 3.44231C6.71971 3.78437 5.96937 4.28573 5.33732 4.91777C4.06086 6.19423 3.34375 7.92549 3.34375 9.73069C3.34375 11.5359 4.06086 13.2671 5.33732 14.5436C6.61379 15.8201 8.34505 16.5372 10.1502 16.5372C11.9554 16.5372 13.6867 15.8201 14.9632 14.5436Z"
    stroke="#A7A7A7"
    stroke-width="1.27618"
    stroke-linecap="round"
    stroke-linejoin="round"
  />
</svg>
