<svg
  width="20"
  height="21"
  viewBox="0 0 20 21"
  fill="none"
  xmlns="http://www.w3.org/2000/svg">
  <g clip-path="url(#clip0_2860_248)">
    <path
      d="M8.66703 0.581299C7.27004 0.581477 5.8938 0.919354 4.65556 1.56614C3.41733 2.21293 2.35379 3.14946 1.55557 4.29594C0.757348 5.44242 0.248103 6.76487 0.0712195 8.15061C-0.105664 9.53636 0.0550583 10.9443 0.539692 12.2546C1.02433 13.5648 1.81851 14.7384 2.85457 15.6755C3.89064 16.6126 5.13787 17.2854 6.49002 17.6365C7.84217 17.9876 9.25915 18.0066 10.6202 17.6919C11.9813 17.3773 13.2462 16.7382 14.307 15.8293L18.8617 20.3866L19.8057 19.4426L15.2484 14.8866C16.3266 13.6281 17.0214 12.0867 17.2504 10.4453C17.4794 8.80395 17.2329 7.13131 16.5402 5.62572C15.8476 4.12012 14.7377 2.84469 13.3423 1.95062C11.9469 1.05656 10.3243 0.581337 8.66703 0.581299Z"
      fill="#F97300"
    />
  </g>
  <defs>
    <clipPath id="clip0_2860_248">
      <rect
        width="20"
        height="20"
        fill="white"
        transform="translate(0 0.581299)"
      />
    </clipPath>
  </defs>
</svg>
