<svg
  width="20"
  height="21"
  viewBox="0 0 20 21"
  fill="none"
  xmlns="http://www.w3.org/2000/svg">
  <g clip-path="url(#clip0_2860_736)">
    <path
      d="M18.6823 20.5814H1.34903C1.16501 20.5814 1.01562 20.4325 1.01562 20.248V18.9147C1.01562 18.7303 1.16501 18.5814 1.34903 18.5814H18.6823C18.8663 18.5814 19.0157 18.7303 19.0157 18.9147V20.248C19.0157 20.4325 18.8663 20.5814 18.6823 20.5814ZM1.68228 19.9147H18.349V19.2481H1.68228V19.9147Z"
      fill="#A7A7A7"
    />
    <path
      d="M17.3491 19.248H2.68253C2.4985 19.248 2.34912 19.0989 2.34912 18.9146V18.2516C2.34912 17.6983 2.79941 17.248 3.35284 17.248H16.6822C17.2335 17.248 17.6825 17.697 17.6825 18.2487V18.9146C17.6825 19.0989 17.5331 19.248 17.3491 19.248ZM3.01578 18.5814H17.0159V18.2487C17.0159 18.0644 16.8662 17.9147 16.6819 17.9147H3.35284C3.16684 17.9147 3.01578 18.0656 3.01578 18.2516V18.5814Z"
      fill="#A7A7A7"
    />
    <path
      d="M15.6822 17.9148H4.34888C4.16486 17.9148 4.01562 17.7657 4.01562 17.5814V16.248C4.01562 16.0637 4.16486 15.9148 4.34888 15.9148H15.6822C15.8662 15.9148 16.0156 16.0637 16.0156 16.248V17.5814C16.0156 17.7657 15.8662 17.9148 15.6822 17.9148ZM4.68228 17.2481H15.3489V16.5815H4.68228V17.2481Z"
      fill="#A7A7A7"
    />
    <path
      d="M6.34905 4.24814C6.24361 4.24814 6.14001 4.19839 6.07501 4.10516C5.96972 3.9541 6.00695 3.74643 6.15801 3.64114C7.17104 2.93542 8.47002 2.59012 10.0157 2.58142C10.2001 2.58173 10.349 2.73111 10.3487 2.91544C10.3484 3.09946 10.1993 3.24808 10.0153 3.24808C10.011 3.24808 10.0057 3.24808 10.0006 3.24808C8.59942 3.24808 7.43472 3.56439 6.53902 4.18817C6.48104 4.22845 6.41467 4.24814 6.34905 4.24814Z"
      fill="#A7A7A7"
    />
    <path
      d="M3.68237 9.58143C3.49835 9.58143 3.34912 9.4325 3.34912 9.24817C3.34882 7.89823 3.67474 6.81241 4.4061 5.72812C4.50909 5.57554 4.71616 5.53586 4.86874 5.6381C5.02148 5.74109 5.06177 5.94846 4.95877 6.1012C4.30615 7.06846 4.01547 8.03922 4.01578 9.24817C4.01578 9.43219 3.86639 9.58143 3.68237 9.58143Z"
      fill="#A7A7A7"
    />
    <path
      d="M14.3487 8.71939L12.8774 7.24814L14.3487 5.77673L15.8201 7.24814L14.3487 8.71939ZM13.8201 7.24814L14.3487 7.7767L14.8774 7.24814L14.3487 6.71942L13.8201 7.24814Z"
      fill="#A7A7A7"
    />
    <path
      d="M14.3489 6.58151C14.1649 6.58151 14.0156 6.43243 14.0156 6.24811V5.58145C14.0156 5.39713 14.1649 5.24805 14.3489 5.24805C14.5329 5.24805 14.6823 5.39713 14.6823 5.58145V6.24811C14.6823 6.43243 14.5329 6.58151 14.3489 6.58151Z"
      fill="#A7A7A7"
    />
    <path
      d="M16.0157 7.58145H15.349C15.165 7.58145 15.0156 7.43253 15.0156 7.2482C15.0156 7.06387 15.165 6.91479 15.349 6.91479H16.0157C16.1997 6.91479 16.3491 7.06387 16.3491 7.2482C16.3491 7.43253 16.1997 7.58145 16.0157 7.58145Z"
      fill="#A7A7A7"
    />
    <path
      d="M14.3489 9.24811C14.1649 9.24811 14.0156 9.09903 14.0156 8.9147V8.24805C14.0156 8.06372 14.1649 7.91479 14.3489 7.91479C14.5329 7.91479 14.6823 8.06372 14.6823 8.24805V8.9147C14.6823 9.09903 14.5329 9.24811 14.3489 9.24811Z"
      fill="#A7A7A7"
    />
    <path
      d="M13.3492 7.58145H12.6825C12.4985 7.58145 12.3491 7.43253 12.3491 7.2482C12.3491 7.06387 12.4985 6.91479 12.6825 6.91479H13.3492C13.5332 6.91479 13.6824 7.06387 13.6824 7.2482C13.6824 7.43253 13.5332 7.58145 13.3492 7.58145Z"
      fill="#A7A7A7"
    />
    <path
      d="M10.0157 14.0528L8.54443 12.5814L10.0157 11.1101L11.4871 12.5814L10.0157 14.0528ZM9.48712 12.5814L10.0157 13.1101L10.5444 12.5814L10.0157 12.0528L9.48712 12.5814Z"
      fill="#A7A7A7"
    />
    <path
      d="M10.0154 11.9147C9.83151 11.9147 9.68213 11.7658 9.68213 11.5815V10.9148C9.68213 10.7303 9.83151 10.5814 10.0154 10.5814C10.1994 10.5814 10.3488 10.7303 10.3488 10.9148V11.5815C10.3488 11.7658 10.1994 11.9147 10.0154 11.9147Z"
      fill="#A7A7A7"
    />
    <path
      d="M11.6822 12.9147H11.0155C10.8315 12.9147 10.6821 12.7656 10.6821 12.5813C10.6821 12.397 10.8315 12.248 11.0155 12.248H11.6822C11.8662 12.248 12.0156 12.397 12.0156 12.5813C12.0156 12.7656 11.8662 12.9147 11.6822 12.9147Z"
      fill="#A7A7A7"
    />
    <path
      d="M10.0154 14.5814C9.83151 14.5814 9.68213 14.4324 9.68213 14.2481V13.5815C9.68213 13.3971 9.83151 13.248 10.0154 13.248C10.1994 13.248 10.3488 13.3971 10.3488 13.5815V14.2481C10.3488 14.4324 10.1994 14.5814 10.0154 14.5814Z"
      fill="#A7A7A7"
    />
    <path
      d="M9.01569 12.9147H8.34903C8.16501 12.9147 8.01562 12.7656 8.01562 12.5813C8.01562 12.397 8.16501 12.248 8.34903 12.248H9.01569C9.19971 12.248 9.34894 12.397 9.34894 12.5813C9.34894 12.7656 9.19971 12.9147 9.01569 12.9147Z"
      fill="#A7A7A7"
    />
    <path
      d="M14.5347 16.5815H5.49677C5.43237 16.5815 5.36966 16.5627 5.31564 16.5281C2.83167 14.9215 1.34912 12.1995 1.34912 9.24811C1.34912 4.46906 5.23706 0.581421 10.0157 0.581421C14.7944 0.581421 18.6823 4.46906 18.6823 9.24811C18.6823 12.1995 17.1996 14.9215 14.7157 16.5281C14.6617 16.5627 14.5991 16.5815 14.5347 16.5815ZM5.5961 15.9148H14.4351C16.679 14.4248 18.0157 11.9401 18.0157 9.24811C18.0157 4.8371 14.4271 1.24808 10.0157 1.24808C5.60434 1.24808 2.01578 4.8371 2.01578 9.24811C2.01578 11.9401 3.35245 14.4248 5.5961 15.9148Z"
      fill="#A7A7A7"
    />
  </g>
  <defs>
    <clipPath id="clip0_2860_736">
      <rect
        width="20"
        height="20"
        fill="white"
        transform="translate(0 0.581421)"
      />
    </clipPath>
  </defs>
</svg>
