<svg
  width="20"
  height="21"
  viewBox="0 0 20 21"
  fill="none"
  xmlns="http://www.w3.org/2000/svg">
  <g clip-path="url(#clip0_2860_97)">
    <path
      d="M18.6823 18.5813H17.6823V18.2487C17.6823 17.6969 17.2333 17.248 16.682 17.248H16.0156V16.248C16.0156 16.0636 15.8662 15.9147 15.6822 15.9147H15.549C17.527 14.2764 18.6823 11.8524 18.6823 9.24799C18.6823 4.46893 14.7943 0.581299 10.0156 0.581299C5.23697 0.581299 1.34903 4.46893 1.34903 9.24799C1.34903 11.8524 2.50458 14.2764 4.48227 15.9147H4.34891C4.16489 15.9147 4.01566 16.0636 4.01566 16.248V17.248H3.35266C2.79922 17.248 2.34894 17.6983 2.34894 18.2516V18.5813H1.34903C1.16501 18.5813 1.01562 18.7303 1.01562 18.9146V20.2479C1.01562 20.4324 1.16501 20.5813 1.34903 20.5813H18.6823C18.8663 20.5813 19.0157 20.4324 19.0157 20.2479V18.9146C19.0157 18.7303 18.8663 18.5813 18.6823 18.5813ZM12.6823 6.91461H13.2109L14.0157 6.11002V5.5813C14.0157 5.39697 14.1649 5.24789 14.3489 5.24789C14.5329 5.24789 14.6823 5.39697 14.6823 5.5813V6.11002L15.4874 6.91461H16.0156C16.1996 6.91461 16.349 7.06369 16.349 7.24802C16.349 7.43234 16.1996 7.58127 16.0156 7.58127H15.4874L14.6823 8.38602V8.91458C14.6823 9.09891 14.5329 9.24799 14.3489 9.24799C14.1649 9.24799 14.0157 9.09891 14.0157 8.91458V8.38602L13.2109 7.58127H12.6823C12.4983 7.58127 12.3489 7.43234 12.3489 7.24802C12.3489 7.06369 12.4983 6.91461 12.6823 6.91461ZM11.6823 12.248C11.8663 12.248 12.0157 12.3969 12.0157 12.5813C12.0157 12.7656 11.8663 12.9147 11.6823 12.9147H11.154L10.349 13.7193V14.248C10.349 14.4323 10.1996 14.5812 10.0156 14.5812C9.8317 14.5812 9.68231 14.4323 9.68231 14.248V13.7193L8.87756 12.9147H8.349C8.16498 12.9147 8.01559 12.7656 8.01559 12.5813C8.01559 12.3969 8.16498 12.248 8.349 12.248H8.87756L9.68231 11.4433V10.9147C9.68231 10.7302 9.8317 10.5813 10.0156 10.5813C10.1996 10.5813 10.349 10.7302 10.349 10.9147V11.4433L11.154 12.248H11.6823ZM6.15829 3.6413C7.17133 2.93527 8.47031 2.59027 10.016 2.58127C10.1999 2.58157 10.3493 2.73096 10.349 2.91528C10.349 3.0993 10.1996 3.24792 10.0156 3.24792C10.0113 3.24792 10.006 3.24792 10.0012 3.24792C8.5997 3.24792 7.4353 3.56424 6.53961 4.18802C6.48193 4.2283 6.41525 4.24799 6.34964 4.24799C6.24435 4.24799 6.14059 4.19824 6.0759 4.10501C5.97031 3.95395 6.00723 3.74628 6.15829 3.6413ZM4.01566 9.24799C4.01566 9.43201 3.86658 9.58124 3.68225 9.58124C3.49823 9.58124 3.349 9.43231 3.349 9.24799C3.34869 7.89804 3.67462 6.81223 4.40598 5.72794C4.50897 5.57535 4.71603 5.53568 4.86893 5.63791C5.02167 5.74091 5.06195 5.94827 4.95895 6.10101C4.30603 7.06827 4.01535 8.03903 4.01566 9.24799ZM4.68231 16.5814H15.349V17.248H4.68231V16.5814ZM18.349 19.9146H1.68228V19.248H18.349V19.9146Z"
      fill="#F97300"
    />
    <path
      d="M13.7739 7.33878L14.3026 6.81006L14.8314 7.33878L14.3025 7.86749L13.7739 7.33878Z"
      fill="#F97300"
    />
    <path
      d="M9.44092 12.6725L9.96964 12.1438L10.4984 12.6727L9.96964 13.2012L9.44092 12.6725Z"
      fill="#F97300"
    />
  </g>
  <defs>
    <clipPath id="clip0_2860_97">
      <rect
        width="20"
        height="20"
        fill="white"
        transform="translate(0 0.581299)"
      />
    </clipPath>
  </defs>
</svg>
