<svg width="38" height="38" viewBox="0 0 38 38" fill="none" xmlns="http://www.w3.org/2000/svg">
<g clip-path="url(#clip0_9067_3049)">
<rect width="38" height="38" rx="4" fill="#DBFBF6"/>
<path fill-rule="evenodd" clip-rule="evenodd" d="M23.0097 24.7011C23.2341 25.2965 24.1511 26.0254 25.2078 26.4109C29.0838 27.8224 30.7454 27.7184 31.9788 31.3292C30.3041 33.1105 28.252 34.532 25.9505 35.469H13.0559C10.9468 34.611 9.04708 33.3449 7.45508 31.7686C7.55474 25.5284 14.4348 29.1543 16.0563 24.7017C16.3609 23.8637 16.3747 22.5512 16.181 21.6863L19.533 21.7508L22.8856 21.6863C22.6913 22.5512 22.6944 23.8675 23.0097 24.7011Z" fill="#F0C17D"/>
<path fill-rule="evenodd" clip-rule="evenodd" d="M23.0079 24.7011C23.189 25.1812 23.8058 25.7647 24.6206 26.1201C28.6376 27.8694 31.5496 27.766 31.977 31.3292C30.3023 33.1105 28.2503 34.5327 25.9487 35.4691H19.4961V21.7496L19.5312 21.7502L22.8838 21.6857C22.6901 22.5512 22.6933 23.8675 23.0079 24.7011Z" fill="#F0C17D"/>
<path fill-rule="evenodd" clip-rule="evenodd" d="M15.4941 25.3154L19.5205 25.7466L23.5977 25.2897L23.2216 38H15.9122L15.4941 25.3154Z" fill="#A0E8E8"/>
<path fill-rule="evenodd" clip-rule="evenodd" d="M19.5846 23.6976C19.5658 23.6988 19.5464 23.6988 19.5276 23.6995C18.8318 23.7038 18.4846 23.6919 18.106 23.5321C17.7406 23.3767 17.5626 23.0175 17.0593 22.5324C16.6312 22.1206 15.8634 21.7 15.676 21.2513C15.4485 20.7047 15.5024 20.1093 15.4053 19.3145C15.0079 19.5333 14.5823 18.3963 14.4983 18.0234C14.3742 17.4737 13.9781 16.5379 13.8546 15.9099C13.7838 15.5508 13.8264 15.265 13.9474 15.1747C14.2119 14.9779 14.4845 15.0932 14.885 15.6529C14.8618 14.8588 14.8506 14.1894 14.9521 13.6128C15.5005 10.4683 23.1854 8.70515 24.0466 13.5984C24.1475 14.1756 24.1381 14.8463 24.1162 15.6429C24.5129 15.092 24.7837 14.9791 25.0469 15.1753C25.1679 15.2656 25.2111 15.5514 25.1397 15.9105C25.0162 16.5386 24.6195 17.4743 24.496 18.024C24.412 18.3932 23.9958 19.5076 23.6022 19.3221C23.5145 20.0924 23.5621 20.6721 23.3415 21.2105C23.1547 21.6618 22.3919 22.0868 21.9676 22.5036C21.4662 22.9943 21.29 23.3547 20.9265 23.5152C20.5624 23.6731 20.2289 23.6945 19.5846 23.6976Z" fill="#FFDBA7"/>
<path fill-rule="evenodd" clip-rule="evenodd" d="M19.5832 23.6976C19.5644 23.6988 19.545 23.6988 19.5262 23.6995H19.4961V10.5811C21.5557 10.3993 23.6221 11.1972 24.0452 13.5984C24.1461 14.1756 24.1367 14.8463 24.1148 15.6429C24.5115 15.092 24.7823 14.9792 25.0456 15.1753C25.1665 15.2656 25.2098 15.5514 25.1383 15.9105C25.0148 16.5386 24.6181 17.4743 24.4946 18.024C24.4106 18.3932 23.9945 19.5076 23.6008 19.3221C23.5131 20.0924 23.5607 20.6721 23.3401 21.2105C23.1533 21.6618 22.3905 22.0868 21.9662 22.5036C21.4648 22.9944 21.2887 23.3547 20.9251 23.5152C20.561 23.6731 20.2275 23.6945 19.5832 23.6976Z" fill="#FFDBA7"/>
<path fill-rule="evenodd" clip-rule="evenodd" d="M22.8179 23.853C22.9175 24.5588 23.1325 24.8822 23.602 25.2388L21.5887 28.6761L19.459 25.6957C20.5176 25.1122 22.4054 24.3852 22.8179 23.853Z" fill="#B4FFFF"/>
<path fill-rule="evenodd" clip-rule="evenodd" d="M16.1903 23.853C16.0907 24.5588 15.8757 24.8822 15.4062 25.2388L17.4194 28.6761L19.5498 25.6957C18.4906 25.1122 16.6034 24.3852 16.1903 23.853Z" fill="#B4FFFF"/>
<path fill-rule="evenodd" clip-rule="evenodd" d="M15.4957 25.2426C13.4017 27.1116 9.1973 26.2003 7.15652 29.1956C6.04588 30.8259 6.35174 34.0713 6.28906 37.9999H18.3451C17.4563 34.678 16.2623 27.5159 15.4957 25.2426Z" fill="#0EA8B3"/>
<path fill-rule="evenodd" clip-rule="evenodd" d="M19.5982 25.8387L20.6443 27.3811L20.6179 27.7729L19.7555 28.6485L20.7226 30.2041L20.398 38H18.6474L18.2832 30.1966L19.2503 28.641L18.3873 27.7654L18.3615 27.3736L19.4033 25.8324L19.5982 25.8387Z" fill="#14BAC6"/>
<path fill-rule="evenodd" clip-rule="evenodd" d="M19.5972 25.8387L20.6433 27.3812L20.617 27.7729L19.7545 28.6485L20.7216 30.2042L20.397 38H19.502V25.8356L19.5972 25.8387Z" fill="#14BAC6"/>
<path fill-rule="evenodd" clip-rule="evenodd" d="M15.4966 25.2426C15.0541 25.6167 14.2675 26.006 13.4357 26.3012L13.4771 26.3325L13.373 30.7243L15.2546 30.515L14.1571 31.9791L15.8162 37.9999H18.3283C17.4458 34.6837 16.265 27.5209 15.4966 25.2426Z" fill="#14BAC6"/>
<path fill-rule="evenodd" clip-rule="evenodd" d="M16.0074 12.8256C15.3561 13.6053 15.1988 16.6489 15.2446 17.7044C14.1427 13.7075 13.551 10.8531 15.9422 9.05618C19.0811 6.697 22.6067 8.15676 23.1783 9.11886C25.4848 10.3931 24.6825 13.9782 23.9906 17.1447C23.9736 15.9269 23.3951 13.0143 22.9432 11.7826C21.1864 10.6789 17.6996 13.955 16.0074 12.8256Z" fill="#703100"/>
<path fill-rule="evenodd" clip-rule="evenodd" d="M19.4961 7.78516C21.3294 7.73314 22.8236 8.52161 23.1784 9.11893C25.4849 10.3932 24.6826 13.9783 23.9907 17.1448C23.9738 15.9269 23.3953 13.0143 22.9434 11.7827C22.0746 11.2374 20.7841 11.762 19.4961 12.2948V7.78516Z" fill="#703100"/>
<path fill-rule="evenodd" clip-rule="evenodd" d="M23.5062 25.2426C25.5996 27.1116 29.804 26.2003 31.8454 29.1956C32.9554 30.8259 32.6496 34.0713 32.7123 37.9999H20.6562C21.545 34.678 22.739 27.5159 23.5062 25.2426Z" fill="#0EA8B3"/>
<path fill-rule="evenodd" clip-rule="evenodd" d="M23.5097 25.2426C23.7786 25.4688 25.543 26.3219 25.5292 26.3319L25.6339 30.7237L23.7516 30.5143L24.8498 31.9785L23.3217 37.9993H20.6836C21.5605 34.7012 22.7357 27.5391 23.5097 25.2426Z" fill="#14BAC6"/>
</g>
<defs>
<clipPath id="clip0_9067_3049">
<rect width="38" height="38" rx="4" fill="white"/>
</clipPath>
</defs>
</svg>
