<svg width="34" height="34" viewBox="0 0 34 34" fill="none" xmlns="http://www.w3.org/2000/svg">
<rect x="0.5" y="0.5" width="33" height="33" rx="2.3" fill="white" stroke="#D9D9D9"/>
<path d="M19.2165 20.9107C19.3397 21.034 19.409 21.2012 19.409 21.3755C19.409 21.5499 19.3397 21.7171 19.2165 21.8404C19.0932 21.9637 18.926 22.0329 18.7516 22.0329C18.5773 22.0329 18.4101 21.9637 18.2868 21.8404L13.9118 17.4654C13.8506 17.4044 13.802 17.332 13.7689 17.2522C13.7358 17.1724 13.7188 17.0869 13.7188 17.0005C13.7188 16.9142 13.7358 16.8286 13.7689 16.7489C13.802 16.6691 13.8506 16.5967 13.9118 16.5357L18.2868 12.1607C18.4101 12.0374 18.5773 11.9682 18.7516 11.9682C18.926 11.9682 19.0932 12.0374 19.2165 12.1607C19.3397 12.284 19.409 12.4512 19.409 12.6255C19.409 12.7999 19.3397 12.9671 19.2165 13.0904L15.3068 17L19.2165 20.9107Z" fill="#5E6163"/>
</svg>
