<svg width="21" height="20" viewBox="0 0 21 20" fill="none" xmlns="http://www.w3.org/2000/svg">
<path d="M16.4822 3.0658L6.30637 1.26892C5.97993 1.21148 5.64404 1.28603 5.37257 1.4762C5.10109 1.66636 4.91626 1.95656 4.85871 2.28298L2.53449 15.4861C2.50607 15.6479 2.50979 15.8136 2.54545 15.9739C2.58112 16.1342 2.64802 16.2859 2.74234 16.4204C2.83666 16.5548 2.95654 16.6694 3.09515 16.7575C3.23375 16.8455 3.38835 16.9055 3.55012 16.9338L13.7259 18.7306C13.8877 18.7592 14.0535 18.7555 14.2139 18.7199C14.3743 18.6843 14.5261 18.6174 14.6607 18.5231C14.7952 18.4288 14.9098 18.3089 14.998 18.1702C15.0861 18.0315 15.146 17.8769 15.1743 17.715L17.4986 4.51189C17.5555 4.18535 17.4804 3.84956 17.2898 3.57837C17.0992 3.30719 16.8087 3.12281 16.4822 3.0658ZM13.9415 17.4994L3.76496 15.7025L6.08918 2.49939L16.265 4.29627L13.9415 17.4994ZM6.99465 4.56345C7.0236 4.40031 7.11615 4.25533 7.25196 4.1604C7.38776 4.06547 7.55571 4.02835 7.71887 4.0572L14.2032 5.20173C14.3574 5.22873 14.4957 5.31254 14.591 5.43662C14.6864 5.56069 14.7317 5.716 14.718 5.87186C14.7044 6.02772 14.6328 6.17279 14.5174 6.27842C14.4019 6.38405 14.2511 6.44255 14.0947 6.44236C14.058 6.44231 14.0214 6.43917 13.9853 6.43298L7.5009 5.28767C7.33775 5.25872 7.19278 5.16617 7.09785 5.03037C7.00292 4.89456 6.9658 4.72662 6.99465 4.56345ZM6.56184 7.02595C6.57608 6.9451 6.60612 6.86785 6.65023 6.7986C6.69433 6.72936 6.75165 6.66949 6.81891 6.6224C6.88616 6.57532 6.96203 6.54194 7.04219 6.52419C7.12234 6.50643 7.20521 6.50464 7.28606 6.51892L13.7704 7.66423C13.9256 7.69019 14.0653 7.77373 14.1616 7.89816C14.2579 8.0226 14.3037 8.17879 14.2899 8.33553C14.2761 8.49227 14.2037 8.63803 14.0871 8.74371C13.9705 8.8494 13.8184 8.90722 13.6611 8.90564C13.6241 8.90571 13.5872 8.90231 13.5509 8.89548L7.06653 7.75095C6.90351 7.72165 6.75878 7.62883 6.66415 7.49289C6.56952 7.35695 6.53272 7.18901 6.56184 7.02595ZM6.12824 9.48767C6.15774 9.32496 6.25052 9.18056 6.38626 9.08611C6.522 8.99166 6.68964 8.95486 6.85246 8.98377L10.0931 9.5533C10.2471 9.58028 10.3855 9.66404 10.4808 9.78803C10.5761 9.91202 10.6214 10.0672 10.6079 10.223C10.5944 10.3788 10.5229 10.5239 10.4076 10.6296C10.2924 10.7353 10.1417 10.7939 9.98528 10.7939C9.94862 10.7939 9.91203 10.7908 9.8759 10.7845L6.63371 10.2119C6.47071 10.1828 6.32593 10.0901 6.23116 9.95435C6.13639 9.81856 6.09937 9.65072 6.12824 9.48767Z" fill="currentColor"/>
</svg>
