<svg width="16" height="16" viewBox="0 0 16 16" fill="none" xmlns="http://www.w3.org/2000/svg">
<path d="M12.4701 5.46984C12.6109 5.32894 12.802 5.24979 13.0013 5.24979C13.2006 5.24979 13.3917 5.32894 13.5326 5.46984C13.6734 5.61073 13.7526 5.80183 13.7526 6.00109C13.7526 6.20035 13.6734 6.39144 13.5326 6.53234L8.53255 11.5323C8.46287 11.6023 8.38008 11.6577 8.28891 11.6956C8.19775 11.7334 8.10001 11.7529 8.0013 11.7529C7.90259 11.7529 7.80485 11.7334 7.71369 11.6956C7.62252 11.6577 7.53973 11.6023 7.47005 11.5323L2.47005 6.53234C2.32915 6.39144 2.25 6.20035 2.25 6.00109C2.25 5.80183 2.32915 5.61073 2.47005 5.46984C2.61095 5.32894 2.80204 5.24979 3.0013 5.24979C3.20056 5.24979 3.39165 5.32894 3.53255 5.46984L8.00068 9.93796L12.4701 5.46984Z" fill="currentColor"/>
</svg>
