<svg width="14" height="14" viewBox="0 0 14 14" fill="none" xmlns="http://www.w3.org/2000/svg">
<path d="M3.0887 9.2145C2.96542 9.33779 2.79821 9.40705 2.62386 9.40705C2.44951 9.40705 2.2823 9.33779 2.15902 9.2145C2.03573 9.09122 1.96647 8.92401 1.96647 8.74966C1.96647 8.57531 2.03573 8.4081 2.15902 8.28481L6.53402 3.90981C6.59499 3.84863 6.66743 3.80009 6.7472 3.76697C6.82697 3.73385 6.91249 3.7168 6.99886 3.7168C7.08523 3.7168 7.17076 3.73385 7.25052 3.76697C7.33029 3.80009 7.40274 3.84863 7.46371 3.90981L11.8387 8.28481C11.962 8.4081 12.0312 8.57531 12.0312 8.74966C12.0312 8.92401 11.962 9.09122 11.8387 9.2145C11.7154 9.33779 11.5482 9.40705 11.3739 9.40705C11.1995 9.40705 11.0323 9.33779 10.909 9.2145L6.99941 5.30489L3.0887 9.2145Z" fill="currentColor"/>
</svg>
