<svg width="34" height="34" viewBox="0 0 34 34" fill="none" xmlns="http://www.w3.org/2000/svg">
<rect x="0.5" y="0.5" width="33" height="33" rx="2.3" fill="white" stroke="#D9D9D9"/>
<path d="M18.3252 16.9116L18.2368 17L18.3252 17.0884L21.6186 20.3805C21.6186 20.3805 21.6186 20.3805 21.6186 20.3805C21.6999 20.4618 21.7644 20.5583 21.8084 20.6645C21.8524 20.7708 21.875 20.8846 21.875 20.9996C21.875 21.1145 21.8524 21.2284 21.8084 21.3346C21.7644 21.4408 21.6999 21.5373 21.6186 21.6186C21.5373 21.6999 21.4408 21.7644 21.3346 21.8084C21.2284 21.8524 21.1145 21.875 20.9996 21.875C20.8846 21.875 20.7708 21.8524 20.6645 21.8084C20.5583 21.7644 20.4618 21.6999 20.3805 21.6186C20.3805 21.6186 20.3805 21.6186 20.3805 21.6186L17.0884 18.3252L17 18.2368L16.9116 18.3252L13.6195 21.6186C13.5382 21.6999 13.4417 21.7644 13.3355 21.8084C13.2292 21.8524 13.1154 21.875 13.0004 21.875C12.8855 21.875 12.7716 21.8524 12.6654 21.8084C12.5592 21.7644 12.4627 21.6999 12.3814 21.6186C12.3001 21.5373 12.2356 21.4408 12.1916 21.3346C12.1476 21.2284 12.125 21.1145 12.125 20.9996C12.125 20.8846 12.1476 20.7707 12.1916 20.6645C12.2356 20.5583 12.3001 20.4618 12.3814 20.3805L15.6748 17.0884L15.7632 17L15.6748 16.9116L12.3814 13.6195C12.3814 13.6195 12.3814 13.6195 12.3814 13.6195C12.2172 13.4553 12.125 13.2326 12.125 13.0004C12.125 12.7683 12.2172 12.5456 12.3814 12.3814C12.5456 12.2172 12.7683 12.125 13.0004 12.125C13.2326 12.125 13.4553 12.2172 13.6195 12.3814C13.6195 12.3814 13.6195 12.3814 13.6195 12.3814L16.9116 15.6748L17 15.7632L17.0884 15.6748L20.3805 12.3814C20.3805 12.3814 20.3805 12.3814 20.3805 12.3814C20.4618 12.3001 20.5583 12.2356 20.6645 12.1916C20.7707 12.1476 20.8846 12.125 20.9996 12.125C21.1145 12.125 21.2284 12.1476 21.3346 12.1916C21.4408 12.2356 21.5373 12.3001 21.6186 12.3814C21.6999 12.4627 21.7644 12.5592 21.8084 12.6654C21.8524 12.7716 21.875 12.8855 21.875 13.0004C21.875 13.1154 21.8524 13.2292 21.8084 13.3355C21.7644 13.4417 21.6999 13.5382 21.6186 13.6195L18.3252 16.9116Z" fill="#5E6163" stroke="white" stroke-width="0.25"/>
</svg>
