<svg xmlns="http://www.w3.org/2000/svg" width="64" height="64" viewBox="0 0 64 64" fill="none">
<path d="M56.6663 24.3998C50.5063 14.7198 41.493 9.14648 31.9997 9.14648C27.253 9.14648 22.6397 10.5332 18.4263 13.1198C14.213 15.7332 10.4263 19.5465 7.33301 24.3998C4.66634 28.5865 4.66634 35.3865 7.33301 39.5731C13.493 49.2798 22.5063 54.8265 31.9997 54.8265C36.7463 54.8265 41.3597 53.4398 45.573 50.8531C49.7863 48.2398 53.573 44.4265 56.6663 39.5731C59.333 35.4131 59.333 28.5865 56.6663 24.3998ZM31.9997 42.7732C26.0263 42.7732 21.2263 37.9465 21.2263 31.9998C21.2263 26.0531 26.0263 21.2265 31.9997 21.2265C37.973 21.2265 42.773 26.0531 42.773 31.9998C42.773 37.9465 37.973 42.7732 31.9997 42.7732Z" fill="currentColor"/>
<path d="M32.0004 24.3735C27.8137 24.3735 24.4004 27.7869 24.4004 32.0002C24.4004 36.1869 27.8137 39.6002 32.0004 39.6002C36.1871 39.6002 39.6271 36.1869 39.6271 32.0002C39.6271 27.8135 36.1871 24.3735 32.0004 24.3735Z" fill="currentColor"/>
</svg>