<svg width="24" height="24" viewBox="0 0 24 24" fill="none" xmlns="http://www.w3.org/2000/svg">
<g clip-path="url(#clip0_7033_4315)">
<path d="M19.3782 8.11828L14.5553 3.35715C14.4912 3.29401 14.4152 3.24394 14.3316 3.2098C14.2479 3.17567 14.1583 3.15813 14.0678 3.1582H5.79987C5.4344 3.1582 5.0839 3.30152 4.82548 3.55663C4.56706 3.81174 4.42188 4.15775 4.42188 4.51853V19.4821C4.42188 19.8429 4.56706 20.1889 4.82548 20.444C5.0839 20.6991 5.4344 20.8424 5.79987 20.8424H18.2018C18.5672 20.8424 18.9177 20.6991 19.1762 20.444C19.4346 20.1889 19.5798 19.8429 19.5798 19.4821V8.5995C19.5798 8.51015 19.5621 8.42167 19.5275 8.3391C19.4929 8.25653 19.4422 8.1815 19.3782 8.11828ZM14.0678 8.5995V4.85861L17.8573 8.5995H14.0678Z" fill="#BD3D3D"/>
<rect x="7.57812" y="12.6309" width="9.47368" height="1.26316" rx="0.631579" fill="white"/>
<rect x="7.57812" y="15.7891" width="9.47368" height="1.26316" rx="0.631579" fill="white"/>
</g>
<defs>
<clipPath id="clip0_7033_4315">
<rect width="24" height="24" fill="white"/>
</clipPath>
</defs>
</svg>
