<svg width="31" height="28" viewBox="0 0 31 28" fill="none" xmlns="http://www.w3.org/2000/svg">
<path d="M15.3173 27.9992C2.27619 27.8936 0.375454 19.0185 0.375454 19.0185C0.375454 19.0185 -0.469317 15.0035 0.375454 11.6226C1.22022 8.24157 3.43775 5.2832 3.43775 5.2832C3.43775 5.2832 9.45643 9.50944 15.3701 9.29813C21.2839 9.08682 27.3025 5.2832 27.3025 5.2832C27.3025 5.2832 29.6257 8.34722 30.4707 11.6226C31.3158 14.8979 30.2592 19.0185 30.2592 19.0185C30.2592 19.0185 28.3585 28.1049 15.3173 27.9992Z" fill="#004AAD"/>
<path d="M15.4012 25.9012L13.0781 23.2449C13.0781 23.2449 13.9938 22.6515 14.4509 22.1355C14.9177 21.6086 15.4012 20.6035 15.4012 20.6035C15.4012 20.6035 15.8848 21.6086 16.3516 22.1355C16.8087 22.6515 17.7244 23.2449 17.7244 23.2449L15.4012 25.9012Z" fill="white"/>
<ellipse cx="8.58553" cy="16.483" rx="6.12459" ry="6.12804" fill="white"/>
<ellipse cx="22.1168" cy="16.4828" rx="6.12459" ry="6.12804" fill="white"/>
<path d="M9.12051 4.01492L6.375 3.16968L15.2451 0L24.2208 3.16968L15.2451 6.2337L10.4933 4.43755V6.33935C10.4933 6.33935 10.3877 6.65632 9.85968 6.65632C9.3317 6.65632 9.12051 6.33935 9.12051 6.33935V4.01492Z" fill="#191C1F"/>
<path d="M9.12051 4.01492L6.375 3.16968L15.2451 0L24.2208 3.16968L15.2451 6.2337L10.4933 4.43755V6.33935C10.4933 6.33935 10.3877 6.65632 9.85968 6.65632C9.3317 6.65632 9.12051 6.33935 9.12051 6.33935V4.01492Z" fill="black" fill-opacity="0.2"/>
<path d="M9.12051 4.01492L6.375 3.16968L15.2451 0L24.2208 3.16968L15.2451 6.2337L10.4933 4.43755V6.33935C10.4933 6.33935 10.3877 6.65632 9.85968 6.65632C9.3317 6.65632 9.12051 6.33935 9.12051 6.33935V4.01492Z" fill="black" fill-opacity="0.2"/>
<path fill-rule="evenodd" clip-rule="evenodd" d="M8.59773 19.6533C6.84816 19.6533 5.42984 18.2342 5.42984 16.4836C5.42984 15.9095 5.58241 15.371 5.8492 14.9065C5.82793 15.0064 5.81674 15.11 5.81674 15.2162C5.81674 16.0332 6.47862 16.6954 7.29509 16.6954C8.11156 16.6954 8.77344 16.0332 8.77344 15.2162C8.77344 14.3993 8.11156 13.7371 7.29509 13.7371C7.17468 13.7371 7.05763 13.7515 6.94558 13.7786C7.42661 13.4839 7.99234 13.314 8.59773 13.314C10.3473 13.314 11.7656 14.7331 11.7656 16.4836C11.7656 18.2342 10.3473 19.6533 8.59773 19.6533Z" fill="#191C1F"/>
<path fill-rule="evenodd" clip-rule="evenodd" d="M8.59773 19.6533C6.84816 19.6533 5.42984 18.2342 5.42984 16.4836C5.42984 15.9095 5.58241 15.371 5.8492 14.9065C5.82793 15.0064 5.81674 15.11 5.81674 15.2162C5.81674 16.0332 6.47862 16.6954 7.29509 16.6954C8.11156 16.6954 8.77344 16.0332 8.77344 15.2162C8.77344 14.3993 8.11156 13.7371 7.29509 13.7371C7.17468 13.7371 7.05763 13.7515 6.94558 13.7786C7.42661 13.4839 7.99234 13.314 8.59773 13.314C10.3473 13.314 11.7656 14.7331 11.7656 16.4836C11.7656 18.2342 10.3473 19.6533 8.59773 19.6533Z" fill="black" fill-opacity="0.2"/>
<path fill-rule="evenodd" clip-rule="evenodd" d="M8.59773 19.6533C6.84816 19.6533 5.42984 18.2342 5.42984 16.4836C5.42984 15.9095 5.58241 15.371 5.8492 14.9065C5.82793 15.0064 5.81674 15.11 5.81674 15.2162C5.81674 16.0332 6.47862 16.6954 7.29509 16.6954C8.11156 16.6954 8.77344 16.0332 8.77344 15.2162C8.77344 14.3993 8.11156 13.7371 7.29509 13.7371C7.17468 13.7371 7.05763 13.7515 6.94558 13.7786C7.42661 13.4839 7.99234 13.314 8.59773 13.314C10.3473 13.314 11.7656 14.7331 11.7656 16.4836C11.7656 18.2342 10.3473 19.6533 8.59773 19.6533Z" fill="black" fill-opacity="0.2"/>
<path fill-rule="evenodd" clip-rule="evenodd" d="M22.129 19.6533C20.3794 19.6533 18.9611 18.2342 18.9611 16.4836C18.9611 15.9095 19.1137 15.371 19.3804 14.9065C19.3592 15.0064 19.348 15.11 19.348 15.2162C19.348 16.0332 20.0099 16.6954 20.8263 16.6954C21.6428 16.6954 22.3047 16.0332 22.3047 15.2162C22.3047 14.3993 21.6428 13.7371 20.8263 13.7371C20.7059 13.7371 20.5889 13.7515 20.4768 13.7786C20.9579 13.4839 21.5236 13.314 22.129 13.314C23.8786 13.314 25.2969 14.7331 25.2969 16.4836C25.2969 18.2342 23.8786 19.6533 22.129 19.6533Z" fill="#191C1F"/>
<path fill-rule="evenodd" clip-rule="evenodd" d="M22.129 19.6533C20.3794 19.6533 18.9611 18.2342 18.9611 16.4836C18.9611 15.9095 19.1137 15.371 19.3804 14.9065C19.3592 15.0064 19.348 15.11 19.348 15.2162C19.348 16.0332 20.0099 16.6954 20.8263 16.6954C21.6428 16.6954 22.3047 16.0332 22.3047 15.2162C22.3047 14.3993 21.6428 13.7371 20.8263 13.7371C20.7059 13.7371 20.5889 13.7515 20.4768 13.7786C20.9579 13.4839 21.5236 13.314 22.129 13.314C23.8786 13.314 25.2969 14.7331 25.2969 16.4836C25.2969 18.2342 23.8786 19.6533 22.129 19.6533Z" fill="black" fill-opacity="0.2"/>
<path fill-rule="evenodd" clip-rule="evenodd" d="M22.129 19.6533C20.3794 19.6533 18.9611 18.2342 18.9611 16.4836C18.9611 15.9095 19.1137 15.371 19.3804 14.9065C19.3592 15.0064 19.348 15.11 19.348 15.2162C19.348 16.0332 20.0099 16.6954 20.8263 16.6954C21.6428 16.6954 22.3047 16.0332 22.3047 15.2162C22.3047 14.3993 21.6428 13.7371 20.8263 13.7371C20.7059 13.7371 20.5889 13.7515 20.4768 13.7786C20.9579 13.4839 21.5236 13.314 22.129 13.314C23.8786 13.314 25.2969 14.7331 25.2969 16.4836C25.2969 18.2342 23.8786 19.6533 22.129 19.6533Z" fill="black" fill-opacity="0.2"/>
</svg>
