<svg width="73" height="18" viewBox="0 0 73 18" fill="none" xmlns="http://www.w3.org/2000/svg">
<path d="M3.99013 13.9516C2.97261 13.9516 2.17313 13.8065 1.59169 13.5163C1.01025 13.2261 0.595976 12.7908 0.348864 12.2104C0.116288 11.63 0 10.9117 0 10.0556V5.02781C0 4.18621 0.116288 3.48247 0.348864 2.91657C0.58144 2.33615 0.988447 1.90085 1.56989 1.61064C2.15133 1.30593 2.95807 1.15357 3.99013 1.15357H10.3569C11.3744 1.15357 12.1666 1.30593 12.7335 1.61064C13.315 1.90085 13.722 2.33615 13.9545 2.91657C14.2017 3.48247 14.3252 4.18621 14.3252 5.02781V7.87908C14.3252 8.96735 14.1871 9.83797 13.9109 10.4909C13.6493 11.1294 13.1769 11.6735 12.4937 12.1233C12.0721 12.399 11.3526 12.7328 10.3351 13.1245C10.9456 13.2261 11.5125 13.3349 12.0358 13.451C12.5736 13.5526 13.0388 13.6397 13.4313 13.7122C13.9109 13.7993 14.3979 13.8791 14.8921 13.9516C15.4009 14.0097 15.8442 14.0532 16.2222 14.0822C16.6001 14.1258 16.8327 14.1548 16.9199 14.1693L16.4402 16.0411C16.3821 16.0556 16.2294 16.0846 15.9823 16.1282C15.7352 16.1862 15.4009 16.2152 14.9793 16.2152C14.3543 16.2152 13.7656 16.1499 13.2132 16.0193C12.6754 15.9033 12.0794 15.7437 11.4253 15.5405C10.8438 15.3519 10.306 15.1632 9.81179 14.9746C9.3321 14.786 8.83061 14.6118 8.30732 14.4522C7.78402 14.3071 7.18078 14.1838 6.49759 14.0822C5.81439 13.9952 4.97858 13.9516 3.99013 13.9516ZM4.62244 11.8622H7.32614C8.30005 11.8622 9.08499 11.7533 9.68097 11.5357C10.2915 11.3035 10.7348 10.9045 11.011 10.3386C11.3017 9.75816 11.4471 8.95284 11.4471 7.92261V4.76663C11.4471 4.34583 11.2945 3.99033 10.9892 3.70012C10.684 3.39541 10.2697 3.24305 9.74638 3.24305H4.62244C4.09915 3.24305 3.6776 3.3809 3.35781 3.65659C3.03802 3.93229 2.87813 4.3023 2.87813 4.76663V10.3168C2.87813 10.8102 3.03075 11.1947 3.33601 11.4704C3.6558 11.7316 4.08461 11.8622 4.62244 11.8622Z" fill="#004AAD"/>
<path d="M21.1425 13.9516C20.0378 13.9516 19.2819 13.7195 18.8749 13.2551C18.4679 12.7908 18.2644 12.0943 18.2644 11.1657V6.07255H16.4765V4.20073H17.3923C17.6684 4.20073 17.8647 4.15719 17.981 4.07013C18.1118 3.98307 18.2063 3.80895 18.2644 3.54776L18.7005 1.21886H20.9245V4.20073H25.4597V6.07255H20.9245V11.1874C20.9245 11.5502 21.0117 11.7896 21.1861 11.9057C21.3606 12.0218 21.6222 12.0798 21.9711 12.0798H25.0454L25.2635 13.734C24.9582 13.7775 24.4931 13.8283 23.868 13.8863C23.243 13.9299 22.5598 13.9516 21.8185 13.9516H21.1425Z" fill="#004AAD"/>
<path d="M29.8674 13.9516C28.8935 13.9516 28.1667 13.7557 27.687 13.364C27.2218 12.9722 26.9892 12.3337 26.9892 11.4486V6.9867C26.9892 6.76904 27.0038 6.50786 27.0328 6.20314C27.0765 5.88392 27.1782 5.57195 27.3381 5.26723C27.5125 4.96251 27.796 4.70859 28.1885 4.50544C28.5955 4.3023 29.1551 4.20073 29.8674 4.20073H35.8853C36.6121 4.20073 37.1717 4.3023 37.5642 4.50544C37.9566 4.70859 38.2328 4.96251 38.3927 5.26723C38.5672 5.57195 38.6689 5.88392 38.698 6.20314C38.7416 6.50786 38.7634 6.76904 38.7634 6.9867V11.1657C38.7634 11.4268 38.7416 11.717 38.698 12.0363C38.6689 12.3555 38.5672 12.6602 38.3927 12.9504C38.2183 13.2406 37.9348 13.48 37.5424 13.6687C37.1499 13.8573 36.5975 13.9516 35.8853 13.9516H29.8674ZM30.6959 12.0798H35.0567C35.769 12.0798 36.1251 11.7896 36.1251 11.2092V6.94317C36.1251 6.36276 35.769 6.07255 35.0567 6.07255H30.6959C29.9982 6.07255 29.6493 6.36276 29.6493 6.94317V11.2092C29.6493 11.7896 29.9982 12.0798 30.6959 12.0798Z" fill="#004AAD"/>
<path d="M41.1542 18V4.20073H42.9421L43.4872 4.48368C44.1413 4.41112 44.919 4.34583 45.8202 4.28779C46.736 4.22975 47.7753 4.20073 48.9382 4.20073H50.0502C50.777 4.20073 51.3366 4.29504 51.7291 4.48368C52.1216 4.67231 52.3977 4.91173 52.5576 5.20194C52.7321 5.49214 52.8338 5.79686 52.8629 6.11608C52.9065 6.43531 52.9283 6.72551 52.9283 6.9867V11.1657C52.9283 11.3833 52.9065 11.6518 52.8629 11.971C52.8338 12.2757 52.7321 12.5804 52.5576 12.8851C52.3977 13.1898 52.1216 13.4438 51.7291 13.6469C51.3366 13.8501 50.777 13.9516 50.0502 13.9516H48.9382C47.8334 13.9516 46.8523 13.9226 45.9946 13.8646C45.137 13.8065 44.4102 13.7485 43.8142 13.6904V18H41.1542ZM44.4902 12.0798H49.2216C49.4978 12.0798 49.7377 12.0073 49.9412 11.8622C50.1592 11.717 50.2682 11.4994 50.2682 11.2092V6.94317C50.2828 6.62394 50.2028 6.39903 50.0284 6.26844C49.8685 6.13785 49.5996 6.07255 49.2216 6.07255H48.1314C47.2011 6.07255 46.3726 6.09432 45.6458 6.13785C44.9335 6.16687 44.323 6.20314 43.8142 6.24668V11.4051C43.8142 11.7243 43.8433 11.9202 43.9015 11.9927C43.9741 12.0508 44.1704 12.0798 44.4902 12.0798Z" fill="#004AAD"/>
<path d="M56.8833 2.8295C56.3455 2.8295 55.953 2.72068 55.7059 2.50302C55.4588 2.28537 55.3353 1.92261 55.3353 1.41475C55.3353 0.892382 55.4516 0.529625 55.6841 0.326481C55.9312 0.108827 56.331 0 56.8833 0C57.4357 0 57.8355 0.108827 58.0826 0.326481C58.3297 0.529625 58.4532 0.892382 58.4532 1.41475C58.4532 1.9081 58.3297 2.27086 58.0826 2.50302C57.8355 2.72068 57.4357 2.8295 56.8833 2.8295ZM55.5533 13.9516V4.20073H58.2134V13.9516H55.5533Z" fill="#004AAD"/>
<path d="M63.8758 13.9516C62.771 13.9516 61.9716 13.6977 61.4773 13.1898C60.9831 12.6675 60.736 11.9565 60.736 11.0568C60.736 10.1137 60.9904 9.38815 61.4991 8.88029C62.0224 8.37243 62.8147 8.1185 63.8758 8.1185H64.9878C66.078 8.1185 67.0592 8.14752 67.9313 8.20556C68.8035 8.2636 69.523 8.32164 70.0899 8.37969V6.94317C70.0899 6.81258 70.0754 6.68198 70.0463 6.55139C70.0172 6.40629 69.93 6.29021 69.7847 6.20314C69.6393 6.11608 69.3922 6.07255 69.0433 6.07255H67.9531C66.3687 6.07255 65.0459 6.10157 63.9848 6.15961C62.9237 6.20314 62.2041 6.24667 61.8262 6.29021L61.5864 4.63603C61.5864 4.43289 62.1387 4.30955 63.2435 4.26602C64.3482 4.22249 66.1943 4.20073 68.7817 4.20073H69.8719C70.5987 4.20073 71.1583 4.3023 71.5508 4.50544C71.9433 4.70859 72.2194 4.96251 72.3793 5.26723C72.5538 5.57195 72.6555 5.88392 72.6846 6.20314C72.7282 6.50786 72.75 6.76904 72.75 6.9867V13.9516H70.9621L70.1117 13.5163C69.5012 13.6179 68.7671 13.7195 67.9095 13.821C67.0519 13.9081 66.0707 13.9516 64.966 13.9516H63.8758ZM64.4427 12.0798H69.4358C69.7556 12.0798 69.9445 12.0508 70.0027 11.9927C70.0608 11.9347 70.0899 11.7533 70.0899 11.4486V9.77267H64.4427C64.0502 9.77267 63.774 9.86699 63.6141 10.0556C63.4688 10.2443 63.3961 10.5417 63.3961 10.948C63.3961 11.3543 63.4833 11.6445 63.6577 11.8186C63.8322 11.9927 64.0938 12.0798 64.4427 12.0798Z" fill="#004AAD"/>
</svg>
