<svg width="12" height="12" viewBox="0 0 12 12" fill="none" xmlns="http://www.w3.org/2000/svg">
<path d="M4.34531 10.125H2.25C2.15055 10.125 2.05516 10.0855 1.98484 10.0152C1.91451 9.94486 1.875 9.84948 1.875 9.75002V7.65471C1.87483 7.60601 1.88427 7.55776 1.90277 7.51272C1.92127 7.46768 1.94847 7.42672 1.98281 7.39221L7.60782 1.76721C7.64271 1.73178 7.6843 1.70364 7.73017 1.68443C7.77604 1.66523 7.82527 1.65533 7.875 1.65533C7.92473 1.65533 7.97396 1.66523 8.01983 1.68443C8.0657 1.70364 8.1073 1.73178 8.14219 1.76721L10.2328 3.85783C10.2682 3.89273 10.2964 3.93432 10.3156 3.98019C10.3348 4.02606 10.3447 4.07529 10.3447 4.12502C10.3447 4.17475 10.3348 4.22398 10.3156 4.26985C10.2964 4.31572 10.2682 4.35731 10.2328 4.39221L4.60782 10.0172C4.5733 10.0516 4.53235 10.0788 4.4873 10.0973C4.44226 10.1158 4.39401 10.1252 4.34531 10.125Z" stroke="currentColor" stroke-linecap="round" stroke-linejoin="round"/>
<path d="M6.375 3L9 5.625" stroke="currentColor" stroke-linecap="round" stroke-linejoin="round"/>
</svg>
