<svg width="38" height="38" viewBox="0 0 38 38" fill="none" xmlns="http://www.w3.org/2000/svg">
<rect x="0.25" y="0.25" width="37.5" height="37.5" rx="3.75" fill="#134861" fill-opacity="0.1"/>
<rect x="0.25" y="0.25" width="37.5" height="37.5" rx="3.75" stroke="#286FCE" stroke-width="0.5"/>
<path fill-rule="evenodd" clip-rule="evenodd" d="M22.8387 24.0814C23.0656 24.6827 23.9922 25.4191 25.0583 25.8072C28.9711 27.2325 30.6493 27.1274 31.8946 30.7735C30.2032 32.5717 28.1315 34.0072 25.8086 34.9525H12.7891C10.6601 34.0863 8.74228 32.8078 7.13477 31.2159C7.23497 24.9163 14.1812 28.5768 15.8182 24.0814C16.1261 23.2357 16.1394 21.9107 15.9444 21.0366L19.3285 21.1018L22.7131 21.0366C22.5175 21.9113 22.5211 23.2399 22.8387 24.0814Z" fill="#F0C17D"/>
<path fill-rule="evenodd" clip-rule="evenodd" d="M22.8382 24.0815C23.0211 24.5663 23.6441 25.1554 24.4668 25.514C28.5221 27.2803 31.4619 27.1758 31.8941 30.7736C30.2027 32.5719 28.131 34.0073 25.8081 34.9526H19.293V21.1019L19.328 21.1025L22.7126 21.0374C22.5171 21.9114 22.5207 23.2401 22.8382 24.0815Z" fill="#F0C17D"/>
<path fill-rule="evenodd" clip-rule="evenodd" d="M19.379 23.0686C19.3597 23.0698 19.3404 23.0704 19.3217 23.0704C18.6184 23.0746 18.2683 23.0631 17.8862 22.902C17.5174 22.745 17.3375 22.3822 16.8298 21.8927C16.3976 21.4767 15.6219 21.0524 15.433 20.5996C15.203 20.0479 15.2573 19.4467 15.1595 18.6444C14.7581 18.8648 14.3295 17.7172 14.2438 17.3405C14.1183 16.7858 13.7186 15.8411 13.5931 15.2067C13.5218 14.8439 13.5647 14.5553 13.6872 14.4642C13.9547 14.2656 14.2299 14.3815 14.6344 14.9471C14.6102 14.1454 14.5994 13.47 14.7014 12.8874C15.2549 9.71286 23.0136 7.93271 23.8829 12.873C23.9855 13.4555 23.9764 14.1328 23.9541 14.9368C24.3543 14.3809 24.6278 14.2674 24.894 14.4648C25.0165 14.5553 25.06 14.8445 24.9881 15.2073C24.8632 15.8417 24.463 16.7864 24.3374 17.3412C24.2529 17.7136 23.8328 18.8388 23.4356 18.6517C23.3474 19.4298 23.3957 20.0153 23.1724 20.558C22.984 21.0138 22.2144 21.4435 21.7846 21.8637C21.2787 22.3593 21.1006 22.7227 20.7336 22.8851C20.366 23.0438 20.0292 23.0655 19.379 23.0686Z" fill="#FFDBA7"/>
<path fill-rule="evenodd" clip-rule="evenodd" d="M19.3811 23.0685C19.3618 23.0697 19.3425 23.0703 19.3238 23.0703H19.293V9.82511C21.3725 9.6416 23.4587 10.4469 23.8849 12.8717C23.9875 13.4542 23.9785 14.1315 23.9562 14.9356C24.3564 14.3796 24.6298 14.2661 24.896 14.4635C25.0186 14.5541 25.062 14.8432 24.9902 15.206C24.8652 15.8405 24.465 16.7852 24.3395 17.3399C24.255 17.7124 23.8348 18.8376 23.4376 18.6504C23.3495 19.4285 23.3978 20.0141 23.1744 20.5568C22.9861 21.0125 22.2164 21.4423 21.7866 21.8625C21.2808 22.3581 21.1027 22.7214 20.7357 22.8838C20.3681 23.0438 20.0312 23.0655 19.3811 23.0685Z" fill="#FFDBA7"/>
<path fill-rule="evenodd" clip-rule="evenodd" d="M15.7701 12.0918C15.1121 12.879 14.9539 15.9521 14.9998 17.0176C13.8879 12.9822 13.2897 10.101 15.7043 8.2864C18.8728 5.90501 22.4325 7.37791 23.0102 8.34918C25.3385 9.63555 24.5296 13.255 23.83 16.4519C23.8131 15.2223 23.2287 12.282 22.7724 11.0384C20.9995 9.92411 17.4784 13.2327 15.7701 12.0918Z" fill="#703100"/>
<path fill-rule="evenodd" clip-rule="evenodd" d="M19.293 7.00247C21.1438 6.94995 22.6523 7.74616 23.0108 8.3492C25.3391 9.63557 24.5302 13.2551 23.8306 16.452C23.8137 15.2223 23.2294 12.282 22.773 11.0385C21.8965 10.4879 20.5938 11.0173 19.293 11.5558V7.00247Z" fill="#703100"/>
<path fill-rule="evenodd" clip-rule="evenodd" d="M23.3386 24.629C23.3579 24.6465 23.3779 24.6634 23.3978 24.6797L23.4334 24.6755L23.4328 24.7099C25.5757 26.4895 29.7276 25.6401 31.7583 28.6203C32.8793 30.2659 32.5702 33.5425 32.6336 37.5091H23.0537H20.4616H18.1309H15.6753H5.95898C6.02176 33.5431 5.71269 30.2659 6.83427 28.6203C8.89513 25.5961 13.14 26.516 15.254 24.6296L15.2787 24.7057L19.3183 25.1385L23.3199 24.6894L23.3386 24.629Z" fill="#134861"/>
<path fill-rule="evenodd" clip-rule="evenodd" d="M23.3389 24.629C23.3582 24.6465 23.3781 24.6634 23.3981 24.6797L23.4337 24.6755L23.4331 24.7099C25.576 26.4895 29.7279 25.6401 31.7586 28.6203C32.8796 30.2659 32.5705 33.5425 32.6339 37.5091H23.054H20.4619H19.2969V25.1361L19.3186 25.1385L23.3202 24.6894L23.3389 24.629Z" fill="#134861"/>
<path fill-rule="evenodd" clip-rule="evenodd" d="M22.6419 23.2256C22.7427 23.9379 22.9594 24.2645 23.4333 24.6236L21.4008 28.0946L19.25 25.086C20.3203 24.4975 22.2254 23.7628 22.6419 23.2256Z" fill="#A0E8E8"/>
<path fill-rule="evenodd" clip-rule="evenodd" d="M15.9521 23.2256C15.8513 23.9379 15.6346 24.2645 15.1602 24.6236L17.1926 28.0946L19.3434 25.086C18.2744 24.4975 16.3687 23.7628 15.9521 23.2256Z" fill="#A0E8E8"/>
<path fill-rule="evenodd" clip-rule="evenodd" d="M14.6303 25.0781H14.7093L20.0232 33.0239H16.9489L12.2012 25.9244C13.0849 25.7162 13.9282 25.4856 14.6303 25.0781Z" fill="#14BAC6"/>
<path fill-rule="evenodd" clip-rule="evenodd" d="M13.9027 25.4252L18.9842 33.0239H17.9858L13.0859 25.6974C13.3684 25.6165 13.6413 25.5284 13.9027 25.4252Z" fill="#D43726"/>
<path fill-rule="evenodd" clip-rule="evenodd" d="M23.9659 25.0781H23.8976L18.5723 33.0239H21.6466L26.4034 25.9262C25.516 25.7174 24.6703 25.4868 23.9659 25.0781Z" fill="#14BAC6"/>
<path fill-rule="evenodd" clip-rule="evenodd" d="M24.7019 25.4282L19.6113 33.0239H20.6098L25.5186 25.6999C25.2367 25.6196 24.9633 25.5308 24.7019 25.4282Z" fill="#D43726"/>
<path fill-rule="evenodd" clip-rule="evenodd" d="M19.2942 29.39C19.64 29.39 19.672 29.9423 19.9799 30.0124C20.2878 30.083 20.6433 29.6339 20.9149 29.76C21.227 29.9097 21.0158 30.4216 21.262 30.6184C21.5089 30.8152 22.0245 30.5653 22.2146 30.7965C22.4301 31.0663 22.0178 31.4364 22.1548 31.7201C22.2919 32.005 22.8647 32.0032 22.9354 32.2936C23.0126 32.631 22.4808 32.7849 22.4808 33.1006C22.4808 33.4163 22.9975 33.6632 22.9354 33.956C22.8587 34.2934 22.313 34.2011 22.176 34.486C22.0395 34.7703 22.3975 35.217 22.2146 35.4536C21.9991 35.7241 21.5476 35.4048 21.3007 35.6015C21.0538 35.7983 21.183 36.3561 20.9149 36.4901C20.6035 36.6404 20.3354 36.1563 20.0276 36.2263C19.7197 36.2969 19.5942 36.8553 19.2948 36.8602C18.9489 36.8602 18.9169 36.3078 18.6096 36.2378C18.3018 36.1678 17.9462 36.6163 17.6746 36.4901C17.3631 36.3404 17.5738 35.8285 17.3275 35.6317C17.0806 35.4355 16.5651 35.6854 16.3749 35.4536C16.1594 35.1838 16.5717 34.8144 16.4347 34.5301C16.2976 34.2457 15.7248 34.2469 15.6542 33.9566C15.5769 33.6192 16.1087 33.4652 16.1087 33.1495C16.1087 32.8344 15.592 32.5869 15.6542 32.2941C15.7308 31.9567 16.2765 32.0491 16.4135 31.7648C16.5506 31.4798 16.192 31.0331 16.3755 30.7971C16.591 30.5267 17.0425 30.846 17.2894 30.6492C17.5363 30.4524 17.4071 29.8947 17.6752 29.7606C17.9866 29.6103 18.2547 30.0945 18.5631 30.0238C18.8692 29.9538 18.9947 29.3948 19.2942 29.39Z" fill="#FDB813"/>
<path fill-rule="evenodd" clip-rule="evenodd" d="M19.3248 29.3918C19.6417 29.4238 19.681 29.9448 19.9792 30.0124C20.2864 30.083 20.6426 29.6339 20.9142 29.7601C21.2263 29.9098 21.015 30.4217 21.2619 30.6184C21.5088 30.8152 22.0237 30.5653 22.2139 30.7965C22.43 31.0664 22.0171 31.4364 22.1541 31.7201C22.2912 32.005 22.864 32.0032 22.9346 32.2936C23.0119 32.631 22.4801 32.7849 22.4801 33.1006C22.4801 33.4164 22.9968 33.6633 22.9346 33.956C22.858 34.2935 22.3123 34.2011 22.1752 34.486C22.0382 34.7703 22.3968 35.217 22.2133 35.4537C21.9978 35.7241 21.5462 35.4048 21.2994 35.6016C21.0525 35.7984 21.1816 36.3561 20.9136 36.4901C20.6021 36.6405 20.3341 36.1563 20.0263 36.2263C19.7293 36.294 19.6019 36.8173 19.3242 36.8578L19.3248 29.3918Z" fill="#FDB813"/>
<path fill-rule="evenodd" clip-rule="evenodd" d="M19.2942 30.4954C20.7465 30.4954 21.9242 31.6725 21.9242 33.1248C21.9242 34.5772 20.7465 35.7555 19.2942 35.7555C17.8418 35.7555 16.6641 34.5778 16.6641 33.1248C16.6641 31.6731 17.8418 30.4954 19.2942 30.4954ZM19.2942 30.8793C18.0537 30.8793 17.048 31.885 17.048 33.1255C17.048 34.3659 18.0537 35.3716 19.2942 35.3716C20.5347 35.3716 21.5403 34.3659 21.5403 33.1255C21.5403 31.885 20.5347 30.8793 19.2942 30.8793Z" fill="#FC9E0A"/>
<path fill-rule="evenodd" clip-rule="evenodd" d="M19.3242 30.4954C20.7627 30.5123 21.9235 31.6827 21.9235 33.1248C21.9235 34.5676 20.7627 35.738 19.3242 35.7549V35.3704C20.5502 35.3541 21.539 34.3551 21.539 33.1248C21.539 31.8952 20.5502 30.8962 19.3242 30.8793V30.4954Z" fill="#FC9E0A"/>
</svg>
