<svg width="38" height="38" viewBox="0 0 38 38" fill="none" xmlns="http://www.w3.org/2000/svg">
<path d="M34.3648 18.9559C34.3572 22.719 32.9761 26.35 30.4809 29.167C27.9857 31.984 24.548 33.7932 20.8133 34.255C20.73 34.2632 20.6458 34.2541 20.5662 34.2282C20.4865 34.2023 20.4131 34.1602 20.3505 34.1046C20.2879 34.0489 20.2375 33.981 20.2025 33.9049C20.1674 33.8288 20.1485 33.7464 20.1468 33.6626V22.5104H23.7013C23.8634 22.5107 24.0237 22.4778 24.1725 22.4137C24.3213 22.3495 24.4554 22.2556 24.5664 22.1376C24.6775 22.0196 24.7632 21.8801 24.8182 21.7277C24.8731 21.5753 24.8963 21.4132 24.8862 21.2515C24.86 20.9451 24.7185 20.6601 24.4904 20.4539C24.2622 20.2478 23.9644 20.1359 23.6569 20.1407H20.1468V16.5862C20.1468 15.9577 20.3965 15.355 20.8409 14.9106C21.2853 14.4662 21.888 14.2166 22.5165 14.2166H24.8862C25.0482 14.2169 25.2086 14.184 25.3574 14.1198C25.5062 14.0557 25.6402 13.9618 25.7513 13.8438C25.8623 13.7258 25.948 13.5863 26.003 13.4339C26.058 13.2815 26.0811 13.1194 26.071 12.9577C26.0448 12.6513 25.9033 12.3663 25.6752 12.1601C25.447 11.954 25.1492 11.842 24.8417 11.8469H22.5165C21.2596 11.8469 20.0541 12.3462 19.1653 13.235C18.2765 14.1238 17.7772 15.3293 17.7772 16.5862V20.1407H14.2227C14.0606 20.1404 13.9003 20.1733 13.7515 20.2374C13.6027 20.3016 13.4686 20.3955 13.3576 20.5135C13.2465 20.6315 13.1608 20.771 13.1059 20.9234C13.0509 21.0758 13.0277 21.2379 13.0378 21.3996C13.064 21.706 13.2055 21.991 13.4336 22.1972C13.6618 22.4033 13.9596 22.5153 14.2671 22.5104H17.7772V33.6626C17.7776 33.7457 17.7605 33.8279 17.7271 33.9039C17.6937 33.9799 17.6447 34.0481 17.5833 34.1039C17.5218 34.1598 17.4493 34.2021 17.3704 34.2282C17.2916 34.2542 17.2081 34.2633 17.1255 34.255C9.30561 33.3072 3.26297 26.5092 3.57399 18.3783C3.74858 14.3629 5.48579 10.5747 8.41482 7.82247C11.3438 5.07021 15.2327 3.57186 19.2512 3.64724C23.2697 3.72263 27.0996 5.36577 29.9233 8.22594C32.747 11.0861 34.341 14.9367 34.3648 18.9559Z" fill="#3B5998"/>
</svg>
