<svg width="39" height="38" viewBox="0 0 39 38" fill="none" xmlns="http://www.w3.org/2000/svg">
<path d="M19.4581 23.6974C22.0755 23.6974 24.1974 21.5755 24.1974 18.9581C24.1974 16.3406 22.0755 14.2188 19.4581 14.2188C16.8406 14.2188 14.7188 16.3406 14.7188 18.9581C14.7188 21.5755 16.8406 23.6974 19.4581 23.6974Z" fill="#8541AF"/>
<path d="M25.9754 4.14844H12.9423C10.7426 4.14844 8.63304 5.02225 7.07764 6.57764C5.52225 8.13304 4.64844 10.2426 4.64844 12.4423V25.4754C4.64844 27.6751 5.52225 29.7847 7.07764 31.3401C8.63304 32.8954 10.7426 33.7693 12.9423 33.7693H25.9754C28.1751 33.7693 30.2847 32.8954 31.8401 31.3401C33.3954 29.7847 34.2693 27.6751 34.2693 25.4754V12.4423C34.2693 10.2426 33.3954 8.13304 31.8401 6.57764C30.2847 5.02225 28.1751 4.14844 25.9754 4.14844ZM19.4588 26.0678C18.0528 26.0678 16.6784 25.6509 15.5093 24.8698C14.3402 24.0886 13.4291 22.9783 12.891 21.6793C12.3529 20.3803 12.2121 18.951 12.4864 17.572C12.7608 16.1929 13.4378 14.9262 14.432 13.932C15.4262 12.9378 16.6929 12.2608 18.072 11.9864C19.451 11.7121 20.8803 11.8529 22.1793 12.391C23.4783 12.9291 24.5886 13.8402 25.3698 15.0093C26.1509 16.1784 26.5678 17.5528 26.5678 18.9588C26.5678 20.8443 25.8189 22.6525 24.4857 23.9857C23.1525 25.3189 21.3443 26.0678 19.4588 26.0678ZM27.1603 13.0347C26.8088 13.0347 26.4651 12.9305 26.1729 12.7352C25.8806 12.5399 25.6528 12.2623 25.5183 11.9376C25.3838 11.6128 25.3486 11.2555 25.4172 10.9107C25.4857 10.566 25.655 10.2493 25.9036 10.0007C26.1521 9.75218 26.4688 9.58291 26.8135 9.51433C27.1583 9.44576 27.5156 9.48095 27.8404 9.61547C28.1651 9.74999 28.4427 9.97778 28.638 10.27C28.8333 10.5623 28.9375 10.9059 28.9375 11.2574C28.9375 11.7288 28.7503 12.1808 28.417 12.5141C28.0837 12.8474 27.6316 13.0347 27.1603 13.0347Z" fill="#8541AF"/>
</svg>
