<svg width="31" height="30" viewBox="0 0 31 30" fill="none" xmlns="http://www.w3.org/2000/svg">
<path d="M27.8996 0.148438H3.0181C2.38963 0.148438 1.7869 0.398098 1.3425 0.842496C0.898098 1.2869 0.648438 1.88963 0.648438 2.5181V27.3996C0.648438 28.0281 0.898098 28.6308 1.3425 29.0752C1.7869 29.5196 2.38963 29.7693 3.0181 29.7693H27.8996C28.5281 29.7693 29.1308 29.5196 29.5752 29.0752C30.0196 28.6308 30.2693 28.0281 30.2693 27.3996V2.5181C30.2693 1.88963 30.0196 1.2869 29.5752 0.842496C29.1308 0.398098 28.5281 0.148438 27.8996 0.148438ZM10.7195 22.0678C10.7195 22.3821 10.5947 22.6835 10.3725 22.9057C10.1503 23.1278 9.84892 23.2527 9.53468 23.2527C9.22045 23.2527 8.91908 23.1278 8.69688 22.9057C8.47468 22.6835 8.34985 22.3821 8.34985 22.0678V12.5892C8.34985 12.2749 8.47468 11.9736 8.69688 11.7514C8.91908 11.5292 9.22045 11.4044 9.53468 11.4044C9.84892 11.4044 10.1503 11.5292 10.3725 11.7514C10.5947 11.9736 10.7195 12.2749 10.7195 12.5892V22.0678ZM9.53468 9.6271C9.18318 9.6271 8.83957 9.52287 8.5473 9.32758C8.25503 9.13229 8.02724 8.85472 7.89272 8.52998C7.7582 8.20523 7.72301 7.84788 7.79158 7.50313C7.86016 7.15837 8.02943 6.8417 8.27798 6.59315C8.52653 6.34459 8.84321 6.17533 9.18796 6.10675C9.53271 6.03818 9.89006 6.07337 10.2148 6.20789C10.5396 6.3424 10.8171 6.5702 11.0124 6.86247C11.2077 7.15473 11.3119 7.49834 11.3119 7.84985C11.3119 8.32121 11.1247 8.77326 10.7914 9.10656C10.4581 9.43986 10.006 9.6271 9.53468 9.6271ZM23.7527 22.0678C23.7527 22.3821 23.6278 22.6835 23.4057 22.9057C23.1835 23.1278 22.8821 23.2527 22.5678 23.2527C22.2536 23.2527 21.9522 23.1278 21.73 22.9057C21.5078 22.6835 21.383 22.3821 21.383 22.0678V16.7361C21.383 15.9505 21.0709 15.1971 20.5154 14.6416C19.9599 14.0861 19.2065 13.774 18.4209 13.774C17.6353 13.774 16.8819 14.0861 16.3264 14.6416C15.7709 15.1971 15.4588 15.9505 15.4588 16.7361V22.0678C15.4588 22.3821 15.334 22.6835 15.1118 22.9057C14.8896 23.1278 14.5883 23.2527 14.274 23.2527C13.9598 23.2527 13.6584 23.1278 13.4362 22.9057C13.214 22.6835 13.0892 22.3821 13.0892 22.0678V12.5892C13.0884 12.2976 13.1951 12.0159 13.389 11.7981C13.5828 11.5803 13.8502 11.4416 14.1399 11.4086C14.4296 11.3756 14.7213 11.4506 14.9592 11.6192C15.1971 11.7879 15.3644 12.0383 15.4292 12.3226C16.2309 11.7791 17.1656 11.4643 18.1327 11.4119C19.0998 11.3596 20.063 11.5717 20.9187 12.0254C21.7744 12.4791 22.4903 13.1574 22.9896 13.9873C23.4889 14.8173 23.7527 15.7675 23.7527 16.7361V22.0678Z" fill="#0072B1"/>
</svg>
