<svg width="33" height="30" viewBox="0 0 33 30" fill="none" xmlns="http://www.w3.org/2000/svg">
<path d="M32.3845 6.50944L27.9118 10.9674C27.0231 21.3199 18.285 29.3619 7.84365 29.3619C5.69615 29.3619 3.9189 29.0213 2.57115 28.3548C1.48999 27.8068 1.04568 27.2292 0.927193 27.0515C0.829163 26.9026 0.765994 26.7335 0.742394 26.5568C0.718794 26.3801 0.735371 26.2003 0.790889 26.0309C0.846408 25.8615 0.939437 25.7068 1.06305 25.5784C1.18665 25.4499 1.33766 25.351 1.5048 25.289C1.53442 25.2742 5.02968 23.9413 7.29567 21.3791C5.89037 20.3785 4.6552 19.1583 3.6375 17.7654C1.60847 15.0106 -0.539037 10.2269 0.749468 3.08824C0.789974 2.87602 0.887041 2.67867 1.03042 2.51704C1.1738 2.35542 1.35816 2.23551 1.56404 2.16999C1.77058 2.10237 1.99174 2.09285 2.20332 2.14248C2.4149 2.19211 2.60876 2.29898 2.76368 2.45139C2.80812 2.51063 7.73998 7.36845 13.7678 8.93835V8.03492C13.7736 7.09551 13.9644 6.16645 14.3293 5.30078C14.6942 4.43511 15.226 3.64979 15.8944 2.98965C16.5628 2.32952 17.3546 1.8075 18.2248 1.4534C19.0949 1.09931 20.0263 0.920067 20.9657 0.92592C22.1986 0.943505 23.406 1.28016 24.4702 1.90308C25.5343 2.526 26.419 3.41395 27.0379 4.48042H31.5403C31.7742 4.47969 32.0031 4.54821 32.1982 4.67736C32.3932 4.8065 32.5456 4.99049 32.6363 5.20613C32.7216 5.42498 32.7433 5.66353 32.6987 5.89417C32.6542 6.12482 32.5452 6.33813 32.3845 6.50944Z" fill="#00ACEE"/>
</svg>
