<svg width="34" height="26" viewBox="0 0 34 26" fill="none" xmlns="http://www.w3.org/2000/svg">
<path d="M32.7789 4.36016C32.6425 3.81291 32.3754 3.3069 32.0005 2.8855C31.6257 2.4641 31.1542 2.13988 30.6266 1.94063C25.55 -0.0187469 17.4453 -0.00390294 17 -0.00390294C16.5547 -0.00390294 8.45 -0.0187469 3.37344 1.94063C2.8458 2.13988 2.37435 2.4641 1.99949 2.8855C1.62462 3.3069 1.35753 3.81291 1.22109 4.36016C0.835156 5.82969 0.375 8.53125 0.375 12.9992C0.375 17.4672 0.835156 20.1688 1.22109 21.6383C1.35753 22.1855 1.62462 22.6915 1.99949 23.1129C2.37435 23.5343 2.8458 23.8586 3.37344 24.0578C8.24219 25.943 15.8719 26.0023 16.8961 26.0023H17.1039C18.1281 26.0023 25.7578 25.943 30.6266 24.0578C31.1542 23.8586 31.6257 23.5343 32.0005 23.1129C32.3754 22.6915 32.6425 22.1855 32.7789 21.6383C33.1648 20.1688 33.625 17.4672 33.625 12.9992C33.625 8.53125 33.1648 5.82969 32.7789 4.36016ZM22.0766 13.4891L14.9516 18.2391C14.8571 18.3086 14.7423 18.3451 14.625 18.343C14.5267 18.3393 14.4304 18.314 14.343 18.2688C14.2481 18.2194 14.1687 18.1447 14.1137 18.053C14.0587 17.9613 14.0301 17.8562 14.0312 17.7492V8.24922C14.0301 8.14228 14.0587 8.03713 14.1137 7.94542C14.1687 7.85372 14.2481 7.77904 14.343 7.72969C14.4376 7.67919 14.5442 7.65529 14.6514 7.66051C14.7585 7.66574 14.8623 7.69991 14.9516 7.75938L22.0766 12.5094C22.1594 12.5615 22.2276 12.6338 22.2749 12.7195C22.3221 12.8051 22.3469 12.9014 22.3469 12.9992C22.3469 13.0971 22.3221 13.1933 22.2749 13.279C22.2276 13.3646 22.1594 13.4369 22.0766 13.4891Z" fill="#C4302B"/>
</svg>
