<svg width="18" height="20" viewBox="0 0 18 20" fill="none" xmlns="http://www.w3.org/2000/svg">
<path d="M3.00714 4.88176H3.00781C4.35611 4.88176 5.44843 3.78824 5.44843 2.44062C5.44843 1.09232 4.35594 0 3.00781 0H3.00714C1.65883 0 0.566513 1.09249 0.566513 2.44062C0.566513 3.78824 1.65918 4.88176 3.00714 4.88176Z" fill="#5563DA"/>
<path d="M5.17224 12.796V6.31188C5.17224 5.9558 5.33747 5.64191 5.59293 5.43332C5.48713 5.34728 5.36777 5.27763 5.23569 5.2326C5.12051 5.19393 4.99947 5.16782 4.87091 5.16782H4.8704L1.14456 5.16798H1.14406C1.0093 5.16798 0.881062 5.19544 0.760528 5.23879C0.318594 5.39699 0 5.81534 0 6.3117V12.7959C0 13.1464 0.161547 13.4558 0.410482 13.665C0.603168 13.8276 0.848774 13.9315 1.11997 13.9376V18.8558C1.11997 18.935 1.12767 19.012 1.14274 19.0868C1.15697 19.1568 1.17806 19.2246 1.20468 19.2899C1.20618 19.2939 1.20685 19.2976 1.20819 19.3016C1.22862 19.3516 1.25272 19.399 1.28018 19.445C1.28168 19.4477 1.28286 19.4502 1.28436 19.4527C1.31466 19.5028 1.34932 19.5497 1.38581 19.5942C1.39787 19.6098 1.41226 19.6227 1.42582 19.6369C1.45261 19.6664 1.4804 19.6948 1.50986 19.7211C1.52744 19.7363 1.54518 19.7496 1.56259 19.7633C1.59239 19.7862 1.62186 19.8078 1.65366 19.8276C1.67342 19.8403 1.69284 19.852 1.7141 19.8634C1.74658 19.8811 1.77955 19.8972 1.81488 19.9114C1.83514 19.9205 1.8564 19.9292 1.87766 19.9369C1.91616 19.9504 1.95584 19.9607 1.99618 19.9699C2.0156 19.9741 2.03418 19.9799 2.0536 19.9836C2.11454 19.9938 2.17648 20 2.23925 20H3.77574C3.83902 20 3.90096 19.9938 3.96173 19.9834C3.98148 19.9797 3.99973 19.9739 4.01914 19.9697C4.05932 19.9605 4.09883 19.9503 4.13767 19.9367C4.15893 19.9292 4.18019 19.9205 4.20044 19.9113C4.23577 19.8967 4.26892 19.881 4.30139 19.8632C4.32215 19.852 4.3419 19.8403 4.36183 19.8274C4.3933 19.8076 4.4231 19.7862 4.4524 19.7631C4.47048 19.7494 4.48822 19.7362 4.50547 19.7209C4.53493 19.695 4.56272 19.6662 4.5895 19.6367C4.60306 19.6225 4.61746 19.6094 4.62968 19.594C4.66618 19.5493 4.70049 19.5025 4.73063 19.4526C4.73214 19.4501 4.73414 19.4474 4.73532 19.4449C4.76227 19.3987 4.78637 19.3513 4.8073 19.3014C4.80847 19.2974 4.80931 19.2937 4.81082 19.2897C4.8371 19.2244 4.85853 19.1569 4.87226 19.0866C4.88749 19.0118 4.89519 18.9351 4.89519 18.8556L4.89552 13.9378C5.16204 13.9321 5.40226 13.8305 5.59378 13.6737C5.5901 13.6705 5.58608 13.6685 5.58257 13.6655C5.33363 13.456 5.17225 13.1468 5.17225 12.7963L5.17224 12.796Z" fill="#5563DA"/>
<path d="M8.54032 4.88176C8.55087 4.88176 8.56058 4.88025 8.57079 4.88025C8.581 4.88025 8.59071 4.88176 8.60109 4.88176H8.60126C9.94922 4.88176 11.0424 3.78824 11.0424 2.44062C11.0426 1.09266 9.94922 0.000167847 8.60126 0.000167847H8.60109C8.59071 0.000167847 8.581 0.00167451 8.57079 0.00167451C8.56058 0.00167451 8.55087 0.000167847 8.54049 0.000167847H8.54032C7.19236 0.000167847 6.09918 1.09266 6.09918 2.44079C6.09901 3.78824 7.19236 4.88176 8.54032 4.88176Z" fill="#5563DA"/>
<path d="M14.1335 4.88176H14.1342C15.4825 4.88176 16.5748 3.78824 16.5748 2.44062C16.5748 1.09232 15.4823 0 14.1342 0H14.1335C12.7852 0 11.6929 1.09249 11.6929 2.44062C11.6929 3.78824 12.7854 4.88176 14.1335 4.88176Z" fill="#5563DA"/>
<path d="M16.3809 5.23876C16.2603 5.19557 16.1321 5.16795 15.9973 5.16795H12.2705C12.1419 5.16795 12.0211 5.19389 11.9057 5.23273C11.7738 5.27777 11.6543 5.34741 11.5483 5.43345C11.8038 5.64188 11.9694 5.95591 11.9694 6.31201V12.7962C11.9694 13.1467 11.8078 13.4561 11.559 13.6653C11.5555 13.6684 11.5515 13.6705 11.5478 13.6735C11.7393 13.8306 11.9796 13.9319 12.2461 13.9377V18.8559C12.2461 18.9351 12.2538 19.0121 12.269 19.0869C12.2827 19.1569 12.3043 19.2247 12.3305 19.29C12.332 19.294 12.3326 19.2977 12.334 19.3017C12.3549 19.3518 12.379 19.3991 12.406 19.4452C12.4071 19.4479 12.4091 19.4504 12.4106 19.4529C12.4409 19.5029 12.4751 19.5498 12.5116 19.5943C12.5238 19.6099 12.5384 19.6228 12.5518 19.637C12.5782 19.6665 12.6063 19.695 12.6358 19.7212C12.653 19.7365 12.6708 19.7497 12.6889 19.7634C12.7182 19.7864 12.7478 19.808 12.7794 19.8277C12.7994 19.8404 12.8191 19.8521 12.8399 19.8635C12.8724 19.8813 12.9058 19.8973 12.9408 19.9116C12.9611 19.9206 12.9823 19.9293 13.0036 19.937C13.0421 19.9506 13.0818 19.9608 13.1221 19.97C13.1415 19.9742 13.1598 19.98 13.1795 19.9837C13.2406 19.9936 13.3028 19.9998 13.366 19.9998H14.9025C14.9653 19.9998 15.0272 19.9936 15.088 19.9832C15.1074 19.9795 15.126 19.9737 15.1454 19.9695C15.1856 19.9603 15.2251 19.9501 15.264 19.9365C15.2852 19.929 15.3065 19.9203 15.3267 19.9111C15.3622 19.8965 15.395 19.8808 15.4275 19.863C15.4488 19.8518 15.4682 19.8401 15.4879 19.8272C15.5198 19.8075 15.5492 19.786 15.579 19.7629C15.5966 19.7492 15.6143 19.736 15.6317 19.7207C15.6612 19.6948 15.689 19.666 15.7158 19.6365C15.7293 19.6223 15.7437 19.6092 15.7558 19.5938C15.7923 19.5491 15.8271 19.5023 15.8572 19.4524C15.8588 19.4499 15.8599 19.4472 15.8614 19.4447C15.8889 19.3985 15.913 19.3511 15.9334 19.3012C15.9346 19.2972 15.9354 19.2935 15.9369 19.2895C15.9637 19.2242 15.9846 19.1567 15.9989 19.0864C16.0139 19.0116 16.0216 18.9349 16.0216 18.8554V13.9376C16.2928 13.9319 16.5381 13.8278 16.7311 13.6651C16.9799 13.4558 17.1416 13.1466 17.1416 12.7959V6.31177C17.1414 5.81541 16.8229 5.39704 16.3809 5.23886L16.3809 5.23876Z" fill="#5563DA"/>
<path d="M11.6084 6.31145C11.6084 5.81492 11.2907 5.39673 10.8479 5.23854C10.7282 5.19535 10.5999 5.16773 10.4647 5.16773H6.67742C6.54215 5.16773 6.41392 5.19519 6.29422 5.23854C5.85143 5.39674 5.53369 5.81509 5.53369 6.31145V12.7956C5.53369 13.1462 5.69524 13.4555 5.94401 13.6648C6.13703 13.8273 6.38178 13.9313 6.65298 13.9373V18.8555C6.65298 18.9347 6.66068 19.0117 6.67642 19.0865C6.68964 19.1565 6.71174 19.2243 6.73735 19.2896C6.73886 19.2936 6.73953 19.2973 6.74104 19.3013C6.7623 19.3514 6.78624 19.3987 6.81302 19.4448C6.81419 19.4475 6.81654 19.45 6.81804 19.4525C6.84835 19.5025 6.882 19.5494 6.91849 19.594C6.93121 19.6095 6.94528 19.6224 6.95867 19.6366C6.98512 19.6661 7.01375 19.6946 7.04338 19.7208C7.05995 19.7361 7.07786 19.7493 7.09611 19.763C7.12491 19.786 7.15504 19.8076 7.18635 19.8273C7.2066 19.84 7.22636 19.8518 7.24678 19.8631C7.27909 19.8809 7.31308 19.897 7.34723 19.9112C7.36849 19.9202 7.38891 19.9289 7.41068 19.9366C7.44935 19.9502 7.48886 19.9604 7.52937 19.9696C7.54812 19.9738 7.56704 19.9797 7.58629 19.9833C7.64773 19.9934 7.70916 19.9996 7.77245 19.9996H9.36919C9.43247 19.9996 9.49391 19.9934 9.55518 19.983C9.57409 19.9793 9.59318 19.9735 9.61209 19.9693C9.65261 19.9601 9.69178 19.9499 9.73078 19.9363C9.75255 19.9288 9.77297 19.9201 9.79423 19.9109C9.82872 19.8963 9.86254 19.8806 9.89468 19.8628C9.9151 19.8516 9.93486 19.8399 9.95511 19.827C9.98642 19.8072 10.0166 19.7858 10.0453 19.7627C10.0636 19.749 10.0817 19.7357 10.0981 19.7205C10.1279 19.6946 10.156 19.6658 10.1828 19.6363C10.1964 19.6221 10.2102 19.609 10.223 19.5936C10.2595 19.5489 10.2933 19.502 10.3234 19.4522C10.3249 19.4496 10.3271 19.447 10.3284 19.4445C10.3552 19.3983 10.3792 19.3509 10.4004 19.301C10.4019 19.297 10.4026 19.2933 10.4041 19.2893C10.4301 19.224 10.4518 19.1565 10.465 19.0862C10.4808 19.0114 10.4885 18.9347 10.4885 18.8552L10.4895 13.9374C10.7607 13.9317 11.0053 13.8276 11.1985 13.6649C11.4472 13.4556 11.6088 13.1464 11.6088 12.7957L11.6086 6.31155L11.6084 6.31145Z" fill="#5563DA"/>
</svg>
