<svg width="18" height="16" viewBox="0 0 18 16" fill="none" xmlns="http://www.w3.org/2000/svg">
<path d="M12.9648 0C11.304 0.0272215 9.76055 0.860968 8.82704 2.2349C7.89359 0.861001 6.35012 0.0272443 4.68928 0C2.01575 0 0 2.28169 0 5.30784C0 8.57377 2.51176 10.8181 6.31299 14.2158C6.81723 14.6672 7.34638 15.1394 7.89638 15.6386C8.42332 16.1205 9.23089 16.1205 9.75782 15.6386C10.3095 15.1394 10.837 14.6671 11.3412 14.2158C15.1422 10.8181 17.6542 8.57384 17.6542 5.30784C17.6542 2.28172 15.6384 0 12.9649 0H12.9648ZM10.6057 13.3929C10.0993 13.8463 9.56857 14.3202 9.01625 14.8218C8.90879 14.9188 8.74533 14.9188 8.63775 14.8218C8.08606 14.3202 7.55485 13.8463 7.04829 13.3929C3.46869 10.1941 1.10365 8.08006 1.10365 5.30784C1.10365 2.9108 2.64502 1.10338 4.68955 1.10338C7.15893 1.10338 8.28109 3.42044 8.32788 3.51973C8.41836 3.71249 8.6115 3.83589 8.82435 3.83693C9.0372 3.83576 9.23046 3.71236 9.32082 3.51973C9.37319 3.42044 10.4954 1.10338 12.9648 1.10338C15.0094 1.10338 16.5507 2.91077 16.5507 5.30784C16.5508 8.08002 14.1856 10.1942 10.6057 13.3929Z" fill="black"/>
</svg>
