<svg width="20" height="20" viewBox="0 0 20 20" fill="none" xmlns="http://www.w3.org/2000/svg">
<path d="M5.29741 13.4784H6.00184L5.64955 12.5436L5.29741 13.4784Z" fill="#5563DA"/>
<path d="M7.82627 9.56472V7.82567H0.869528C0.638934 7.82567 0.417658 7.91723 0.254612 8.08028C0.0915665 8.24333 0 8.46458 0 8.6952V17.3908C0 17.6216 0.0915665 17.8427 0.254612 18.0058C0.417658 18.1688 0.638916 18.2605 0.869528 18.2605H2.17389V19.626C2.17389 19.7858 2.35192 19.881 2.48484 19.7924L4.78263 18.2605H10.435C10.6656 18.2605 10.8867 18.1688 11.0498 18.0058C11.213 17.8427 11.3045 17.6216 11.3045 17.3908V11.3039H9.56532C9.10413 11.3039 8.66173 11.1206 8.33564 10.7946C8.0094 10.4683 7.82627 10.0261 7.82627 9.56472ZM6.54795 14.9346L6.33061 14.3476H4.97399L4.75665 14.9346C4.67251 15.1603 4.42153 15.2751 4.19573 15.1911C3.96995 15.107 3.85523 14.856 3.93923 14.6302L5.2436 11.1519C5.30605 10.9799 5.46939 10.8654 5.65224 10.8654C5.83523 10.8654 5.99856 10.9799 6.06102 11.1519L7.36539 14.6302C7.44939 14.856 7.33453 15.107 7.10888 15.1911C6.88309 15.2751 6.63195 15.1603 6.54795 14.9346Z" fill="#5563DA"/>
<path d="M19.1309 0H9.56543C9.33484 0 9.11371 0.0915665 8.95067 0.254612C8.78747 0.417658 8.69591 0.638916 8.69591 0.869528V9.56518C8.69591 9.79592 8.78747 10.017 8.95067 10.1801C9.11371 10.3431 9.33486 10.4348 9.56543 10.4348H15.2178L17.5156 11.9668C17.6485 12.0554 17.8265 11.9601 17.8265 11.8003V10.4348H19.1309C19.3615 10.4348 19.5828 10.3431 19.7458 10.1801C19.9089 10.017 20.0004 9.7959 20.0004 9.56518V0.869528C20.0004 0.638934 19.9089 0.417658 19.7458 0.254612C19.5828 0.0915665 19.3615 0 19.1309 0Z" fill="#5563DA"/>
<path d="M14.6268 5.29722C14.7371 5.47557 14.7966 5.67949 14.7973 5.88861L14.7973 5.88889C14.7973 6.15107 14.7059 6.40542 14.538 6.61251C14.3702 6.81953 14.1355 6.96768 13.8708 7.03483C13.6061 7.10197 13.3254 7.08459 13.072 6.98524C12.8186 6.88587 12.6061 6.7098 12.468 6.4835L12.4679 6.48331C12.4263 6.41468 12.415 6.33266 12.4369 6.25559C12.4588 6.17866 12.5116 6.11435 12.5823 6.07572C12.6528 6.03714 12.7362 6.0268 12.8143 6.04649C12.8926 6.0662 12.9605 6.11477 13.0024 6.18296L13.0026 6.18317C13.0573 6.27296 13.1364 6.34803 13.2323 6.40042C13.3281 6.45282 13.4372 6.48055 13.5484 6.48056C13.6596 6.48056 13.7687 6.45284 13.8646 6.40045C13.9604 6.34807 14.0395 6.27301 14.0943 6.18322C14.149 6.09347 14.1777 5.99199 14.1777 5.88896C14.1777 5.78593 14.1491 5.68445 14.0944 5.59468C14.0396 5.50488 13.9605 5.4298 13.8647 5.3774C13.7688 5.32499 13.6598 5.29725 13.5486 5.29722H14.6268ZM14.6268 5.29722H15.5686V6.77778C15.5686 6.85798 15.6023 6.934 15.6608 6.98938C15.7192 7.04463 15.7975 7.075 15.8784 7.075C15.9592 7.075 16.0375 7.04463 16.0959 6.98938C16.1544 6.934 16.1881 6.85798 16.1881 6.77778V3.51944H16.4652C16.5461 3.51944 16.6244 3.48907 16.6828 3.43382C16.7413 3.37844 16.775 3.30242 16.775 3.22222C16.775 3.14203 16.7413 3.066 16.6828 3.01062C16.6244 2.95537 16.5461 2.925 16.4652 2.925H15.2915C15.2106 2.925 15.1323 2.95537 15.0739 3.01062C15.0154 3.066 14.9817 3.14203 14.9817 3.22222C14.9817 3.30242 15.0154 3.37844 15.0739 3.43382C15.1323 3.48907 15.2106 3.51944 15.2915 3.51944H15.5686V4.70278H14.6268C14.7371 4.52443 14.7966 4.32051 14.7973 4.11139V4.11111C14.7973 3.84893 14.7059 3.59459 14.538 3.38749C14.3702 3.18048 14.1355 3.03233 13.8708 2.96518C13.6061 2.89804 13.3254 2.91542 13.072 3.01477C12.8187 3.1141 12.6062 3.29011 12.4681 3.51633C12.4473 3.5502 12.4335 3.58785 12.4279 3.62713C12.4222 3.66648 12.4249 3.70649 12.4356 3.74479C12.4463 3.78308 12.4649 3.81874 12.49 3.84979C12.515 3.88082 12.5461 3.9066 12.5813 3.92584C12.6165 3.94508 12.6552 3.95745 12.6951 3.96238C12.7351 3.96732 12.7756 3.96474 12.8146 3.95476C12.8535 3.94479 12.8902 3.92757 12.9225 3.90393C12.9548 3.88032 12.9821 3.85072 13.0026 3.81668C13.0574 3.72693 13.1365 3.6519 13.2323 3.59952C13.3282 3.5471 13.4372 3.51936 13.5485 3.51935C13.6597 3.51934 13.7688 3.54706 13.8647 3.59946C13.9605 3.65184 14.0396 3.72691 14.0944 3.81671C14.1492 3.90648 14.1778 4.00796 14.1778 4.11101C14.1778 4.21406 14.1492 4.31555 14.0945 4.40532C14.0397 4.49514 13.9606 4.57022 13.8648 4.62262C13.7689 4.67503 13.6598 4.70277 13.5486 4.70278L14.6268 5.29722ZM13.331 4.7884C13.3894 4.73315 13.4677 4.70278 13.5486 4.70278L13.331 4.7884ZM13.331 4.7884C13.2725 4.84378 13.2388 4.9198 13.2388 5M13.331 4.7884L13.2388 5M13.2388 5C13.2388 5.0802 13.2725 5.15622 13.331 5.2116M13.2388 5L13.331 5.2116M13.331 5.2116C13.3894 5.26685 13.4677 5.29722 13.5486 5.29722L13.331 5.2116Z" fill="white" stroke="white" stroke-width="0.15"/>
</svg>
