<svg width="12" height="14" viewBox="0 0 12 14" fill="none" xmlns="http://www.w3.org/2000/svg">
<path d="M5.87986 2.63623C7.35201 2.63623 8.53779 3.8221 8.53779 5.2533C8.53779 6.72545 7.35192 7.91123 5.87986 7.91123C4.44865 7.91123 3.26279 6.72537 3.26279 5.2533C3.26279 3.8221 4.44865 2.63623 5.87986 2.63623ZM5.87986 3.69945C5.02113 3.69945 4.32601 4.39457 4.32601 5.2533C4.32601 6.15289 5.02113 6.84812 5.87986 6.84812C6.77945 6.84812 7.47468 6.153 7.47468 5.2533C7.47468 4.39457 6.77955 3.69945 5.87986 3.69945Z" fill="#4D4D4D"/>
<path d="M4.65282 13.4219C3.26247 11.8053 2.24024 10.2638 1.545 8.94791C0.768064 7.4065 0.399994 6.0531 0.399994 5.03788C0.399994 2.25571 2.85354 0 5.87948 0C8.94628 0 11.4 2.25581 11.4 5.03788C11.4 6.05297 11.032 7.40647 10.255 8.94791C9.55986 10.2638 8.53749 11.7675 7.14717 13.4219C6.4929 14.1738 5.30703 14.2114 4.65277 13.4219H4.65282ZM2.48555 8.53433C3.13982 9.81263 4.12122 11.2788 5.47059 12.8579C5.71591 13.1211 6.084 13.1211 6.32932 12.8579C7.67871 11.2789 8.66011 9.81278 9.31435 8.53433C10.0504 7.14327 10.3366 5.94021 10.3366 5.03788C10.3366 2.78207 8.37381 0.939795 5.87929 0.939795C3.42575 0.939795 1.42198 2.78197 1.42198 5.03788C1.42198 5.94019 1.74911 7.14327 2.4852 8.53433H2.48555Z" fill="#4D4D4D"/>
</svg>
