<svg width="38" height="38" viewBox="0 0 38 38" fill="none" xmlns="http://www.w3.org/2000/svg">
<path d="M17.5778 14.2C17.5778 15.0837 16.8613 15.8002 15.9776 15.8002C15.0942 15.8002 14.3777 15.0837 14.3777 14.2C14.3777 13.3166 15.0942 12.6001 15.9776 12.6001C16.8613 12.6001 17.5778 13.3166 17.5778 14.2Z" fill="#259F4E"/>
<path d="M23.6222 23.4444C23.6222 24.3281 22.9057 25.0444 22.0223 25.0444C21.1386 25.0444 20.4221 24.3281 20.4221 23.4444C20.4221 22.5607 21.1386 21.8445 22.0223 21.8445C22.9057 21.8445 23.6222 22.5607 23.6222 23.4444Z" fill="#259F4E"/>
<path d="M19 3C10.1467 3 3 10.1467 3 19C3 27.8533 10.1467 35 19 35C27.8533 35 35 27.8533 35 19C35 10.1467 27.8533 3 19 3ZM12.9556 14.2C12.9556 12.5289 14.3068 11.1777 15.978 11.1777C17.6491 11.1777 19.0003 12.5288 19.0003 14.2C19.0001 15.8711 17.6489 17.2224 15.9778 17.2224C14.3067 17.2224 12.9557 15.8712 12.9557 14.2H12.9556ZM15.1245 25.1156C14.9824 25.2934 14.7689 25.4 14.5556 25.4C14.4134 25.4 14.2711 25.3646 14.129 25.2579C13.809 25.0089 13.7733 24.5823 13.9869 24.2624L23.1957 12.1735C23.4448 11.8535 23.8714 11.8178 24.1913 12.0314C24.5112 12.2804 24.547 12.707 24.3334 13.0269L15.1245 25.1156ZM22.0223 26.4667C20.3512 26.4667 18.9999 25.1156 18.9999 23.4444C18.9999 21.7732 20.3511 20.422 22.0223 20.422C23.6934 20.422 25.0446 21.7732 25.0446 23.4444C25.0444 25.1155 23.6935 26.4667 22.0223 26.4667Z" fill="#259F4E"/>
<rect x="1.5" y="1.5" width="35" height="35" rx="17.5" stroke="#E9F5ED" stroke-width="3"/>
</svg>
