<svg width="35" height="36" viewBox="0 0 35 36" fill="none" xmlns="http://www.w3.org/2000/svg">
<path fill-rule="evenodd" clip-rule="evenodd" d="M16.4858 0.34324C16.6424 0.127532 16.8932 0 17.16 0C17.4268 0 17.6777 0.127532 17.8342 0.34324L20.2645 3.68884C20.9013 4.56482 22.0299 4.93152 23.0601 4.59633L26.9932 3.31879C27.2466 3.2362 27.5248 3.28028 27.7408 3.43711C27.9565 3.59366 28.084 3.84453 28.084 4.11131V8.24695C28.084 9.32967 28.7817 10.2897 29.812 10.6248L33.7442 11.9026C33.9984 11.9849 34.1965 12.1842 34.2791 12.4376C34.3617 12.6909 34.3176 12.9692 34.1608 13.1852L31.7305 16.5308C31.0937 17.4065 31.0937 18.5935 31.7305 19.4692L34.1608 22.8148C34.3176 23.0308 34.3617 23.3091 34.2791 23.5624C34.1965 23.8158 33.9984 24.0151 33.7442 24.0974L29.812 25.3752C28.7817 25.7104 28.084 26.6703 28.084 27.753V31.8887C28.084 32.1555 27.9565 32.4063 27.7408 32.5629C27.5248 32.7197 27.2466 32.7638 26.9932 32.6812L23.0601 31.4037C22.0299 31.0685 20.9013 31.4352 20.2645 32.3112L17.8342 35.6568C17.6777 35.8725 17.4268 36 17.16 36C16.8932 36 16.6424 35.8725 16.4858 35.6568L14.0555 32.3112C13.4187 31.4352 12.2902 31.0685 11.2599 31.4037L7.32683 32.6812C7.07344 32.7638 6.79522 32.7197 6.57922 32.5629C6.36351 32.4063 6.23598 32.1555 6.23598 31.8887V27.753C6.23598 26.6703 5.53834 25.7103 4.50803 25.3752L0.575842 24.0974C0.321622 24.0151 0.123494 23.8158 0.0408898 23.5624C-0.0417145 23.3091 0.00238044 23.0308 0.159206 22.8148L2.58954 19.4692C3.22635 18.5935 3.22635 17.4065 2.58954 16.5308L0.159206 13.1852C0.00237758 12.9692 -0.0417145 12.6909 0.0408898 12.4376C0.123494 12.1842 0.321622 11.9849 0.575842 11.9026L4.50803 10.6248C5.53831 10.2896 6.23598 9.32967 6.23598 8.24695V4.11131C6.23598 3.84453 6.36351 3.59366 6.57922 3.43711C6.79521 3.28028 7.07343 3.23619 7.32683 3.31879L11.2599 4.59633C12.2902 4.93147 13.4187 4.56479 14.0555 3.68884L16.4858 0.34324ZM22.1607 18.8337C19.8605 18.8337 17.9936 20.7006 17.9936 23.0008C17.9936 25.301 19.8605 27.1679 22.1607 27.1679C24.461 27.1679 26.3279 25.301 26.3279 23.0008C26.3279 20.7006 24.461 18.8337 22.1607 18.8337ZM22.1607 20.5005C23.5409 20.5005 24.6611 21.6206 24.6611 23.0008C24.6611 24.381 23.5409 25.5011 22.1607 25.5011C20.7805 25.5011 19.6604 24.381 19.6604 23.0008C19.6604 21.6206 20.7805 20.5005 22.1607 20.5005ZM11.0813 25.257L24.4168 11.9216C24.7419 11.5965 24.7419 11.0682 24.4168 10.7431C24.0917 10.418 23.5634 10.418 23.2383 10.7431L9.90289 24.0785C9.57779 24.4036 9.57779 24.9319 9.90289 25.257C10.228 25.5821 10.7562 25.5821 11.0813 25.257ZM12.1591 8.83256C9.85882 8.83256 7.99192 10.6995 7.99192 12.9997C7.99192 15.2999 9.85882 17.1669 12.1591 17.1669C14.4593 17.1669 16.3262 15.2999 16.3262 12.9997C16.3262 10.6995 14.4593 8.83256 12.1591 8.83256ZM12.1591 10.4994C13.5393 10.4994 14.6594 11.6195 14.6594 12.9997C14.6594 14.3799 13.5393 15.5 12.1591 15.5C10.7789 15.5 9.65872 14.3799 9.65872 12.9997C9.65872 11.6195 10.7789 10.4994 12.1591 10.4994Z" fill="#259F4E"/>
</svg>
