<svg width="15" height="16" viewBox="0 0 15 16" fill="none" xmlns="http://www.w3.org/2000/svg">
<path d="M11.8267 15.9999C12.8364 16.0004 13.7798 15.4973 14.3417 14.6585C14.9035 13.8194 15.0098 12.7556 14.625 11.8221C14.2402 10.8885 13.415 10.2087 12.4252 10.0094C11.4354 9.81031 10.4114 10.118 9.69553 10.83L5.96382 8.73172C6.07949 8.2677 6.07949 7.78239 5.96382 7.31838L9.69553 5.22005C10.398 5.92272 11.3982 6.24034 12.3772 6.07156C13.3564 5.90295 14.1926 5.26896 14.6194 4.37164C15.0462 3.47446 15.0105 2.42579 14.5237 1.55949C14.0368 0.693401 13.1595 0.117968 12.171 0.016072C11.1825 -0.0855935 10.2063 0.299393 9.55336 1.0481C8.90019 1.79697 8.65181 2.81653 8.88698 3.78196L5.15792 5.88015C4.58976 5.31503 3.82055 4.99873 3.01927 5.00005C2.21805 5.00159 1.45017 5.32098 0.884116 5.8882C0.318064 6.45523 0 7.22385 0 8.02512C0 8.8264 0.318044 9.59501 0.884116 10.162C1.45017 10.7293 2.21805 11.0487 3.01927 11.0502C3.8205 11.0515 4.58971 10.7352 5.15792 10.1701L8.88963 12.2683C8.67326 13.1687 8.88119 14.1184 9.45377 14.846C10.0264 15.5736 10.9007 15.9989 11.8266 16L11.8267 15.9999ZM11.8267 11.5998V11.6C12.1913 11.6 12.541 11.7448 12.799 12.0026C13.0569 12.2606 13.2017 12.6103 13.2017 12.975C13.2017 13.3396 13.0569 13.6893 12.799 13.9471C12.541 14.2052 12.1914 14.35 11.8267 14.35C11.462 14.35 11.1123 14.2052 10.8543 13.9471C10.5965 13.6893 10.4517 13.3396 10.4517 12.975C10.4517 12.6103 10.5965 12.2606 10.8543 12.0026C11.1123 11.7448 11.462 11.6 11.8267 11.6V11.5998ZM11.8267 1.69989V1.70008C12.1913 1.70008 12.541 1.84491 12.799 2.10291C13.0569 2.36072 13.2017 2.71041 13.2017 3.07507C13.2017 3.43974 13.0569 3.78943 12.799 4.04744C12.541 4.30525 12.1914 4.45007 11.8267 4.45007C11.462 4.45007 11.1123 4.30525 10.8543 4.04744C10.5965 3.78943 10.4517 3.43974 10.4517 3.07507C10.4517 2.71041 10.5965 2.36072 10.8543 2.10291C11.1123 1.84491 11.462 1.70008 11.8267 1.70008V1.69989ZM3.02677 9.39982C2.66212 9.39982 2.31242 9.25499 2.05441 8.99718C1.7966 8.73918 1.65178 8.38949 1.65178 8.02482C1.65178 7.66015 1.7966 7.31047 2.05441 7.05246C2.31241 6.79465 2.66211 6.64982 3.02677 6.64982C3.39144 6.64982 3.74113 6.79465 3.99894 7.05246C4.25694 7.31046 4.40177 7.66015 4.40177 8.02482C4.40177 8.38949 4.25694 8.73917 3.99894 8.99718C3.74113 9.25499 3.39144 9.39982 3.02677 9.39982Z" fill="black"/>
</svg>
