<!-- pass color='#FFD700' property -->
<svg width="15" height="21" viewBox="0 0 15 21" fill="none" xmlns="http://www.w3.org/2000/svg">
<path fill='currentColor' d="M12.548 10.7023L14.569 8.71138C14.7056 8.57678 14.814 8.41698 14.888 8.2411C14.9619 8.06522 15 7.87671 15 7.68634C15 7.49597 14.9619 7.30746 14.888 7.13158C14.814 6.9557 14.7056 6.7959 14.569 6.66129L8.74611 0.924636C8.60948 0.790011 8.44726 0.68322 8.26873 0.61036C8.09021 0.537501 7.89886 0.5 7.70561 0.5C7.51237 0.5 7.32102 0.537501 7.1425 0.61036C6.96397 0.68322 6.80175 0.790011 6.66512 0.924636L0.842013 6.66129C0.705359 6.7959 0.596958 6.9557 0.523001 7.13158C0.449043 7.30746 0.410978 7.49597 0.410978 7.68634C0.410978 7.87671 0.449043 8.06522 0.523001 8.2411C0.596958 8.41698 0.705359 8.57678 0.842013 8.71138L2.45222 10.2974L0.431035 12.2886C0.294382 12.4232 0.185981 12.583 0.112023 12.7589C0.0380655 12.9348 0 13.1233 0 13.3137C0 13.504 0.0380655 13.6925 0.112023 13.8684C0.185981 14.0443 0.294382 14.2041 0.431035 14.3387L6.25415 20.0754C6.39078 20.21 6.55299 20.3168 6.73152 20.3896C6.91005 20.4625 7.1014 20.5 7.29464 20.5C7.48788 20.5 7.67923 20.4625 7.85776 20.3896C8.03629 20.3168 8.1985 20.21 8.33513 20.0754L14.1582 14.3382C14.4341 14.0663 14.5891 13.6976 14.5891 13.3132C14.5891 12.9287 14.4341 12.56 14.1582 12.2881L12.548 10.7023ZM12.8726 13.8589C5.45626 20.6852 9.12997 20.6784 1.71667 13.8589C1.64395 13.7874 1.58626 13.7024 1.5469 13.6089C1.50754 13.5153 1.48728 13.415 1.48728 13.3138C1.48728 13.2125 1.50754 13.1123 1.5469 13.0187C1.58626 12.9252 1.64395 12.8402 1.71667 12.7686L3.33828 11.1711L6.66512 14.4478C7.91579 15.5738 8.94805 14.2731 9.79788 13.4116C10.3576 12.8393 9.49382 11.9888 8.91106 12.538C8.44586 12.9873 7.84687 13.8218 7.15161 13.181L2.12739 8.23137C1.98065 8.08678 1.89822 7.89068 1.89822 7.68621C1.89822 7.48175 1.98065 7.28565 2.12739 7.14105C9.54399 0.314826 5.87028 0.321067 13.2836 7.14105C13.4303 7.28565 13.5128 7.48175 13.5128 7.68621C13.5128 7.89068 13.4303 8.08678 13.2836 8.23137L11.662 9.82891L8.33513 6.55196C7.08446 5.42595 6.0522 6.72669 5.20238 7.58811C4.64267 8.16023 5.5077 9.01092 6.08793 8.46052C6.55313 8.01121 7.15211 7.177 7.84713 7.81776L12.8726 12.7686C13.0193 12.9132 13.1018 13.1093 13.1018 13.3138C13.1018 13.5183 13.0193 13.7144 12.8726 13.8589Z" />
</svg>
