<svg width="38" height="38" viewBox="0 0 38 38" fill="none" xmlns="http://www.w3.org/2000/svg">
<path d="M19 35C10.1635 35 3 27.8364 3 19C3 10.1636 10.1636 3 19 3C27.8364 3 35 10.1636 35 19C35 27.8364 27.8364 35 19 35ZM13.0147 19.8031C12.6695 19.4794 12.127 19.4969 11.8034 19.8421C11.4797 20.1877 11.4968 20.7302 11.8424 21.0539L16.414 25.3396C16.7819 25.6844 17.367 25.6385 17.6767 25.2403L25.6765 14.9546C25.9671 14.5811 25.8997 14.0426 25.5262 13.7521C25.1527 13.4615 24.6142 13.5288 24.3233 13.9023L16.9006 23.4459L13.0147 19.8031Z" fill="#E9F5ED"/>
<rect x="1.5" y="1.5" width="35" height="35" rx="17.5" stroke="#259F4E" stroke-width="3"/>
</svg>
