<svg width="27" height="27" viewBox="0 0 27 27" fill="none" xmlns="http://www.w3.org/2000/svg">
<path d="M21.6797 4.96582H5.42969C4.99871 4.96582 4.58539 5.13703 4.28064 5.44177C3.97589 5.74652 3.80469 6.15984 3.80469 6.59082V12.2783C3.80469 17.6327 6.39656 20.8776 8.57102 22.657C10.913 24.5725 13.2429 25.2235 13.3445 25.2499C13.4841 25.2879 13.6314 25.2879 13.771 25.2499C13.8726 25.2235 16.1994 24.5725 18.5445 22.657C20.7128 20.8776 23.3047 17.6327 23.3047 12.2783V6.59082C23.3047 6.15984 23.1335 5.74652 22.8287 5.44177C22.524 5.13703 22.1107 4.96582 21.6797 4.96582ZM21.6797 12.2783C21.6797 16.0432 20.2923 19.0993 17.5562 21.36C16.3652 22.3408 15.0106 23.1041 13.5547 23.6147C12.1178 23.113 10.7799 22.3633 9.60188 21.3996C6.83328 19.1348 5.42969 16.0666 5.42969 12.2783V6.59082H21.6797V12.2783Z" fill="currentColor"/>
</svg>
