<svg width="27" height="27" viewBox="0 0 27 27" fill="none" xmlns="http://www.w3.org/2000/svg">
<g clip-path="url(#clip0_4563_3048)">
<path d="M24.4609 21.5499H22.8359V10.1749C22.8359 9.74391 22.6647 9.33058 22.36 9.02584C22.0552 8.72109 21.6419 8.54988 21.2109 8.54988H14.7109V3.67488C14.7111 3.38062 14.6314 3.09183 14.4803 2.83933C14.3292 2.58683 14.1123 2.38011 13.8529 2.24122C13.5935 2.10233 13.3012 2.03649 13.0073 2.05073C12.7134 2.06497 12.4288 2.15876 12.1841 2.32207L4.05906 7.73738C3.83617 7.88609 3.65351 8.08761 3.52735 8.32399C3.40118 8.56037 3.33543 8.82428 3.33594 9.09223V21.5499H1.71094C1.49545 21.5499 1.28879 21.6355 1.13641 21.7879C0.98404 21.9402 0.898438 22.1469 0.898438 22.3624C0.898438 22.5779 0.98404 22.7845 1.13641 22.9369C1.28879 23.0893 1.49545 23.1749 1.71094 23.1749H24.4609C24.6764 23.1749 24.8831 23.0893 25.0355 22.9369C25.1878 22.7845 25.2734 22.5779 25.2734 22.3624C25.2734 22.1469 25.1878 21.9402 25.0355 21.7879C24.8831 21.6355 24.6764 21.5499 24.4609 21.5499ZM21.2109 10.1749V21.5499H14.7109V10.1749H21.2109ZM4.96094 9.09223L13.0859 3.67488V21.5499H4.96094V9.09223ZM11.4609 11.7999V13.4249C11.4609 13.6404 11.3753 13.847 11.223 13.9994C11.0706 14.1518 10.8639 14.2374 10.6484 14.2374C10.4329 14.2374 10.2263 14.1518 10.0739 13.9994C9.92154 13.847 9.83594 13.6404 9.83594 13.4249V11.7999C9.83594 11.5844 9.92154 11.3777 10.0739 11.2254C10.2263 11.073 10.4329 10.9874 10.6484 10.9874C10.8639 10.9874 11.0706 11.073 11.223 11.2254C11.3753 11.3777 11.4609 11.5844 11.4609 11.7999ZM8.21094 11.7999V13.4249C8.21094 13.6404 8.12533 13.847 7.97296 13.9994C7.82059 14.1518 7.61393 14.2374 7.39844 14.2374C7.18295 14.2374 6.97629 14.1518 6.82391 13.9994C6.67154 13.847 6.58594 13.6404 6.58594 13.4249V11.7999C6.58594 11.5844 6.67154 11.3777 6.82391 11.2254C6.97629 11.073 7.18295 10.9874 7.39844 10.9874C7.61393 10.9874 7.82059 11.073 7.97296 11.2254C8.12533 11.3777 8.21094 11.5844 8.21094 11.7999ZM8.21094 17.4874V19.1124C8.21094 19.3279 8.12533 19.5345 7.97296 19.6869C7.82059 19.8393 7.61393 19.9249 7.39844 19.9249C7.18295 19.9249 6.97629 19.8393 6.82391 19.6869C6.67154 19.5345 6.58594 19.3279 6.58594 19.1124V17.4874C6.58594 17.2719 6.67154 17.0652 6.82391 16.9129C6.97629 16.7605 7.18295 16.6749 7.39844 16.6749C7.61393 16.6749 7.82059 16.7605 7.97296 16.9129C8.12533 17.0652 8.21094 17.2719 8.21094 17.4874ZM11.4609 17.4874V19.1124C11.4609 19.3279 11.3753 19.5345 11.223 19.6869C11.0706 19.8393 10.8639 19.9249 10.6484 19.9249C10.4329 19.9249 10.2263 19.8393 10.0739 19.6869C9.92154 19.5345 9.83594 19.3279 9.83594 19.1124V17.4874C9.83594 17.2719 9.92154 17.0652 10.0739 16.9129C10.2263 16.7605 10.4329 16.6749 10.6484 16.6749C10.8639 16.6749 11.0706 16.7605 11.223 16.9129C11.3753 17.0652 11.4609 17.2719 11.4609 17.4874Z" fill="currentColor"/>
</g>
<defs>
<clipPath id="clip0_4563_3048">
<rect width="26" height="26" fill="white" transform="translate(0.0859375 0.424805)"/>
</clipPath>
</defs>
</svg>
