<svg width="26" height="26" viewBox="0 0 26 26" fill="none" xmlns="http://www.w3.org/2000/svg">
<path d="M11.375 21.9385C11.375 22.154 11.2894 22.3606 11.137 22.513C10.9847 22.6654 10.778 22.751 10.5625 22.751H4.875C4.44402 22.751 4.0307 22.5798 3.72595 22.275C3.4212 21.9703 3.25 21.557 3.25 21.126V4.87598C3.25 4.445 3.4212 4.03167 3.72595 3.72693C4.0307 3.42218 4.44402 3.25098 4.875 3.25098H10.5625C10.778 3.25098 10.9847 3.33658 11.137 3.48895C11.2894 3.64133 11.375 3.84799 11.375 4.06348C11.375 4.27896 11.2894 4.48563 11.137 4.638C10.9847 4.79037 10.778 4.87598 10.5625 4.87598H4.875V21.126H10.5625C10.778 21.126 10.9847 21.2116 11.137 21.364C11.2894 21.5163 11.375 21.723 11.375 21.9385ZM22.5123 12.4261L18.4498 8.36363C18.2974 8.21117 18.0906 8.12552 17.875 8.12552C17.6594 8.12552 17.4526 8.21117 17.3002 8.36363C17.1477 8.51609 17.062 8.72287 17.062 8.93848C17.062 9.15408 17.1477 9.36086 17.3002 9.51332L19.9763 12.1885H10.5625C10.347 12.1885 10.1403 12.2741 9.98798 12.4265C9.8356 12.5788 9.75 12.7855 9.75 13.001C9.75 13.2165 9.8356 13.4231 9.98798 13.5755C10.1403 13.7279 10.347 13.8135 10.5625 13.8135H19.9763L17.3002 16.4886C17.1477 16.6411 17.062 16.8479 17.062 17.0635C17.062 17.2791 17.1477 17.4859 17.3002 17.6383C17.4526 17.7908 17.6594 17.8764 17.875 17.8764C18.0906 17.8764 18.2974 17.7908 18.4498 17.6383L22.5123 13.5758C22.5879 13.5004 22.6478 13.4108 22.6887 13.3121C22.7296 13.2135 22.7506 13.1078 22.7506 13.001C22.7506 12.8942 22.7296 12.7885 22.6887 12.6898C22.6478 12.5912 22.5879 12.5016 22.5123 12.4261Z" fill="currentColor"/>
<path d="M11.375 21.9385C11.375 22.154 11.2894 22.3606 11.137 22.513C10.9847 22.6654 10.778 22.751 10.5625 22.751H4.875C4.44402 22.751 4.0307 22.5798 3.72595 22.275C3.4212 21.9703 3.25 21.557 3.25 21.126V4.87598C3.25 4.445 3.4212 4.03167 3.72595 3.72693C4.0307 3.42218 4.44402 3.25098 4.875 3.25098H10.5625C10.778 3.25098 10.9847 3.33658 11.137 3.48895C11.2894 3.64133 11.375 3.84799 11.375 4.06348C11.375 4.27896 11.2894 4.48563 11.137 4.638C10.9847 4.79037 10.778 4.87598 10.5625 4.87598H4.875V21.126H10.5625C10.778 21.126 10.9847 21.2116 11.137 21.364C11.2894 21.5163 11.375 21.723 11.375 21.9385ZM22.5123 12.4261L18.4498 8.36363C18.2974 8.21117 18.0906 8.12552 17.875 8.12552C17.6594 8.12552 17.4526 8.21117 17.3002 8.36363C17.1477 8.51609 17.062 8.72287 17.062 8.93848C17.062 9.15408 17.1477 9.36086 17.3002 9.51332L19.9763 12.1885H10.5625C10.347 12.1885 10.1403 12.2741 9.98798 12.4265C9.8356 12.5788 9.75 12.7855 9.75 13.001C9.75 13.2165 9.8356 13.4231 9.98798 13.5755C10.1403 13.7279 10.347 13.8135 10.5625 13.8135H19.9763L17.3002 16.4886C17.1477 16.6411 17.062 16.8479 17.062 17.0635C17.062 17.2791 17.1477 17.4859 17.3002 17.6383C17.4526 17.7908 17.6594 17.8764 17.875 17.8764C18.0906 17.8764 18.2974 17.7908 18.4498 17.6383L22.5123 13.5758C22.5879 13.5004 22.6478 13.4108 22.6887 13.3121C22.7296 13.2135 22.7506 13.1078 22.7506 13.001C22.7506 12.8942 22.7296 12.7885 22.6887 12.6898C22.6478 12.5912 22.5879 12.5016 22.5123 12.4261Z" stroke="currentColor"/>
</svg>
