<svg version="1.1" id="Capa_1" xmlns="http://www.w3.org/2000/svg" xmlns:xlink="http://www.w3.org/1999/xlink" x="0px" y="0px"
	 width="93.27px" height="93.27px" viewBox="0 0 93.27 93.27" style="enable-background:new 0 0 93.27 93.27;" xml:space="preserve"
	>
<g>
	<path d="M92.783,17.789c-0.749-1.461-2.254-2.38-3.896-2.38H47.014c-1.496,0-2.889,0.762-3.694,2.022L28.519,40.626h34.782
		c-3.043-2.813-7.5-7.366-8.648-10.863c-0.255-0.765,0.165-1.593,0.93-1.844c0.765-0.253,1.593,0.166,1.847,0.931
		c1.238,3.766,8.124,10.017,10.677,12.11c0.477,0.392,0.655,1.039,0.447,1.621c-0.209,0.579-0.757,0.967-1.376,0.967H22.99
		c-0.029,0-0.052-0.015-0.08-0.015h-2.218c-1.496,0-2.89,0.762-3.694,2.023L0.689,71.118c-0.861,1.354-0.919,3.064-0.149,4.469
		c0.771,1.399,2.243,2.273,3.842,2.273c0.002,0,0.004,0,0.008,0l39.926-0.059c1.41-0.002,2.734-0.684,3.555-1.83
		c0,0,10.898-15.58,15.492-22.196H27.686c3.045,2.813,7.5,7.366,8.651,10.862c0.253,0.767-0.164,1.594-0.931,1.845
		c-0.151,0.052-0.306,0.073-0.457,0.073c-0.613,0-1.184-0.391-1.387-1.004c-1.239-3.762-8.127-10.016-10.676-12.106
		c-0.478-0.394-0.657-1.041-0.45-1.623c0.209-0.579,0.759-0.968,1.375-0.968h41.56l4.095-0.006c1.412-0.002,2.735-0.685,3.559-1.832
		l19.428-26.674C93.406,21.008,93.537,19.25,92.783,17.789z"/>
</g>
</svg>
